<svg width="17" height="14" viewBox="0 0 17 14" fill="none" xmlns="http://www.w3.org/2000/svg">
<path d="M9.75 0.25C7.95979 0.25 6.2429 0.961159 4.97703 2.22703C3.71116 3.4929 3 5.20979 3 7H0.75L3.6675 9.9175L3.72 10.0225L6.75 7H4.5C4.5 4.0975 6.8475 1.75 9.75 1.75C12.6525 1.75 15 4.0975 15 7C15 9.9025 12.6525 12.25 9.75 12.25C8.3025 12.25 6.99 11.6575 6.045 10.705L4.98 11.77C5.60506 12.3985 6.34837 12.8971 7.16705 13.2369C7.98573 13.5767 8.86359 13.7511 9.75 13.75C11.5402 13.75 13.2571 13.0388 14.523 11.773C15.7888 10.5071 16.5 8.79021 16.5 7C16.5 5.20979 15.7888 3.4929 14.523 2.22703C13.2571 0.961159 11.5402 0.25 9.75 0.25ZM9 4V7.75L12.1875 9.64L12.765 8.6725L10.125 7.105V4H9Z" fill="#1A8B32"/>
</svg>
