<svg width="18" height="17" viewBox="0 0 18 17" fill="none" xmlns="http://www.w3.org/2000/svg">
<path fill-rule="evenodd" clip-rule="evenodd" d="M2.8125 2.8125C2.8125 3.4455 3.02175 4.02975 3.375 4.5H2.0625C1.7144 4.5 1.38056 4.63828 1.13442 4.88442C0.888281 5.13056 0.75 5.4644 0.75 5.8125V7.6875C0.75 8.211 1.05675 8.6625 1.5 8.874V15.1875C1.5 15.912 2.088 16.5 2.8125 16.5H15.1875C15.5356 16.5 15.8694 16.3617 16.1156 16.1156C16.3617 15.8694 16.5 15.5356 16.5 15.1875V8.874C16.9433 8.66325 17.25 8.211 17.25 7.6875V5.8125C17.25 5.4644 17.1117 5.13056 16.8656 4.88442C16.6194 4.63828 16.2856 4.5 15.9375 4.5H14.625C14.9384 4.08215 15.1292 3.58528 15.1761 3.06508C15.223 2.54487 15.1242 2.02188 14.8906 1.55471C14.657 1.08754 14.2979 0.694642 13.8536 0.420045C13.4093 0.145447 12.8973 0 12.375 0C11.283 0 9.798 0.67575 9 2.3325C8.202 0.67575 6.71625 0 5.625 0C4.87908 0 4.16371 0.296316 3.63626 0.823762C3.10882 1.35121 2.8125 2.06658 2.8125 2.8125ZM8.415 4.5C8.19975 1.88025 6.4875 1.125 5.625 1.125C5.17745 1.125 4.74822 1.30279 4.43176 1.61926C4.11529 1.93572 3.9375 2.36495 3.9375 2.8125C3.9375 3.26005 4.11529 3.68928 4.43176 4.00574C4.74822 4.32221 5.17745 4.5 5.625 4.5H8.415ZM15.375 9V15.1875C15.375 15.2372 15.3552 15.2849 15.3201 15.3201C15.2849 15.3552 15.2372 15.375 15.1875 15.375H9.5625V9H15.375ZM8.4375 15.375V9H2.625V15.1875C2.625 15.291 2.709 15.375 2.8125 15.375H8.4375ZM15.9375 7.875C15.9872 7.875 16.0349 7.85525 16.0701 7.82008C16.1052 7.78492 16.125 7.73723 16.125 7.6875V5.8125C16.125 5.76277 16.1052 5.71508 16.0701 5.67992C16.0349 5.64475 15.9872 5.625 15.9375 5.625H9.5625V7.875H15.9375ZM2.0625 7.875H8.4375V5.625H2.0625C2.01277 5.625 1.96508 5.64475 1.92992 5.67992C1.89475 5.71508 1.875 5.76277 1.875 5.8125V7.6875C1.875 7.791 1.959 7.875 2.0625 7.875ZM14.0625 2.8125C14.0625 3.26005 13.8847 3.68928 13.5682 4.00574C13.2518 4.32221 12.8226 4.5 12.375 4.5H9.585C9.80025 1.88025 11.5125 1.125 12.375 1.125C12.8226 1.125 13.2518 1.30279 13.5682 1.61926C13.8847 1.93572 14.0625 2.36495 14.0625 2.8125Z" fill="#1A8B32"/>
</svg>
