<svg width="48" height="20" viewBox="0 0 48 20" fill="none" xmlns="http://www.w3.org/2000/svg">
<path d="M9.43703 3.31055C8.88833 3.9555 8.01421 4.46657 7.14155 4.39171C7.02626 3.52218 7.46113 2.59074 7.96313 2.01345C8.51037 1.35555 9.46768 0.883352 10.244 0.844482C10.336 1.75288 9.97697 2.64545 9.43849 3.31055H9.43703ZM10.2353 4.56302C8.96714 4.48672 7.87849 5.28139 7.27726 5.28139C6.66289 5.28139 5.74207 4.60045 4.73953 4.62349C3.43929 4.63932 2.22369 5.37209 1.56263 6.55114C0.186502 8.89628 1.2051 12.3686 2.52723 14.2805C3.1737 15.2248 3.94713 16.2599 4.96718 16.2311C5.93178 16.1923 6.31996 15.602 7.48302 15.602C8.66068 15.602 8.99486 16.2311 10.0222 16.2081C11.0773 16.1923 11.7457 15.2637 12.3921 14.3193C13.1291 13.2468 13.4326 12.1959 13.4487 12.1441C13.4326 12.121 11.4042 11.3494 11.3896 9.0244C11.3735 7.07372 12.9846 6.14516 13.0532 6.0919C12.1484 4.74297 10.7198 4.60045 10.2338 4.56446L10.2353 4.56302ZM17.5551 1.92276V16.1102H19.766V11.2601H22.8232C25.612 11.2601 27.5733 9.34832 27.5733 6.58857C27.5733 3.82306 25.6514 1.9242 22.8991 1.9242L17.5551 1.92276ZM19.766 3.78275H22.3125C24.2271 3.78275 25.323 4.802 25.323 6.59433C25.323 8.38665 24.2271 9.41454 22.2979 9.41454H19.766V3.78275ZM31.5995 16.2153C32.9902 16.2153 34.2744 15.5185 34.861 14.4071H34.9077V16.1102H36.9508V9.046C36.9508 7.0075 35.3105 5.68161 32.7786 5.68161C30.4379 5.68161 28.7042 7.02333 28.6444 8.86029H30.6276C30.7954 7.98356 31.6009 7.41347 32.7188 7.41347C34.0715 7.41347 34.8245 8.04258 34.8245 9.1986V9.97743L32.0738 10.143C29.5039 10.2999 28.1205 11.3422 28.1205 13.1648C28.1205 15.0017 29.5506 16.2167 31.6009 16.2167L31.5995 16.2153ZM32.2007 14.5353C31.0216 14.5353 30.2701 13.9724 30.2701 13.1115C30.2701 12.2189 30.9924 11.6935 32.3671 11.61L34.8231 11.4602V12.2621C34.8231 13.5909 33.6907 14.5353 32.192 14.5353H32.2007ZM39.6797 19.9713C41.8292 19.9713 42.842 19.1464 43.7234 16.6645L47.5993 5.82269H45.3578L42.7588 14.197H42.7121L40.1131 5.82269H37.803L41.5432 16.1476L41.3447 16.7768C41.0018 17.8349 40.456 18.2452 39.4826 18.2452C39.3075 18.2452 38.9734 18.2236 38.8362 18.2092V19.9123C38.9646 19.9482 39.5133 19.9641 39.6724 19.9641L39.6797 19.9713Z" fill="#BDBDBD"/>
</svg>
