<svg width="24" height="24" viewBox="0 0 24 24" fill="none" xmlns="http://www.w3.org/2000/svg">
<g clip-path="url(#clip0)">
<path d="M21.8908 2.85938H2.10951C1.78481 2.85938 1.48083 2.9392 1.20581 3.07078L11.9533 13.8182L14.3621 11.5032C14.3621 11.5032 14.3623 11.503 14.3624 11.5029C14.3624 11.5028 14.3626 11.5027 14.3626 11.5027L22.7948 3.07097C22.5197 2.9393 22.2156 2.85938 21.8908 2.85938Z" fill="#282828"/>
<path d="M23.7889 4.06531L15.8538 12L23.7886 19.9349C23.9202 19.6599 24 19.3559 24 19.0312V4.96868C24 4.64417 23.9204 4.34023 23.7889 4.06531Z" fill="#282828"/>
<path d="M0.211406 4.06506C0.0798281 4.34008 0 4.64406 0 4.96877V19.0313C0 19.3558 0.0797344 19.6598 0.211219 19.9347L8.14636 12L0.211406 4.06506Z" fill="#282828"/>
<path d="M14.8594 12.9944L12.4503 15.3097C12.3129 15.447 12.133 15.5157 11.9532 15.5157C11.7733 15.5157 11.5933 15.447 11.456 15.3097L9.1406 12.9943L1.20532 20.929C1.48038 21.0607 1.78456 21.1406 2.10935 21.1406H21.8906C22.2153 21.1406 22.5193 21.0608 22.7943 20.9292L14.8594 12.9944Z" fill="#282828"/>
</g>
<defs>
<clipPath id="clip0">
<rect width="24" height="24" fill="white"/>
</clipPath>
</defs>
</svg>
