<svg width="48" height="20" viewBox="0 0 48 20" fill="none" xmlns="http://www.w3.org/2000/svg">
<path d="M22.4265 9.85766V15.2655H20.6753V1.91057H25.3197C25.874 1.89922 26.4252 1.99555 26.9414 2.19398C27.4576 2.39242 27.9285 2.68904 28.3271 3.06672C28.7297 3.42147 29.0501 3.85654 29.2668 4.34268C29.4834 4.82882 29.5914 5.35477 29.5834 5.88518C29.5949 6.41842 29.4886 6.94781 29.2718 7.43704C29.0549 7.92628 28.7327 8.3638 28.3271 8.71962C27.515 9.47831 26.5125 9.8573 25.3197 9.85659H22.4265V9.85766ZM22.4265 3.55475V8.21666H25.3632C25.6851 8.22601 26.0055 8.16943 26.3039 8.05053C26.6022 7.93163 26.872 7.75304 27.0958 7.52617C27.3185 7.31405 27.4956 7.06034 27.6165 6.78004C27.7373 6.49973 27.7996 6.19853 27.7996 5.89423C27.7996 5.58994 27.7373 5.28873 27.6165 5.00843C27.4956 4.72813 27.3185 4.47442 27.0958 4.2623C26.8748 4.03065 26.606 3.84768 26.3073 3.72551C26.0086 3.60335 25.6867 3.54478 25.3632 3.55369H22.4265V3.55475Z" fill="#BDBDBD"/>
<path d="M33.6197 5.82996C34.9141 5.82996 35.9357 6.16881 36.6848 6.84652C37.4338 7.52423 37.808 8.45341 37.8073 9.63407V15.2657H36.1323V13.9976H36.0561C35.331 15.0419 34.3666 15.564 33.1629 15.564C32.1354 15.564 31.2758 15.2657 30.584 14.6689C30.252 14.3951 29.9866 14.0521 29.8071 13.6649C29.6276 13.2778 29.5385 12.8563 29.5464 12.4312C29.5464 11.4857 29.9111 10.7338 30.6406 10.1754C31.37 9.61702 32.3439 9.33713 33.5621 9.33571C34.6019 9.33571 35.4583 9.52219 36.1312 9.89514V9.50301C36.1332 9.21319 36.0693 8.92657 35.9442 8.66393C35.8191 8.4013 35.6359 8.16923 35.4079 7.98456C34.9448 7.57524 34.3413 7.35191 33.7176 7.35906C32.7394 7.35906 31.9654 7.76327 31.3954 8.57169L29.8531 7.62013C30.7015 6.42668 31.957 5.82996 33.6197 5.82996ZM31.3541 12.4685C31.3529 12.6869 31.405 12.9023 31.506 13.0969C31.6071 13.2915 31.7541 13.4597 31.9349 13.5874C32.3222 13.8858 32.8029 14.0439 33.2956 14.0349C34.0346 14.0337 34.7429 13.7456 35.2654 13.2336C35.8455 12.6987 36.1355 12.0711 36.1355 11.3507C35.5895 10.9245 34.8281 10.7114 33.8514 10.7114C33.1401 10.7114 32.5469 10.8794 32.072 11.2154C31.5923 11.5564 31.3541 11.9709 31.3541 12.4685Z" fill="#BDBDBD"/>
<path d="M47.4234 6.12817L41.576 19.2934H39.7683L41.9382 14.6869L38.0933 6.12817H39.9967L42.7757 12.6921H42.8138L45.5167 6.12817H47.4234Z" fill="#BDBDBD"/>
<path d="M15.3508 8.69209C15.3514 8.16926 15.3063 7.64735 15.2159 7.13208H7.83057V10.0869H12.0605C11.974 10.5589 11.7908 11.0087 11.522 11.4094C11.2532 11.8101 10.9043 12.1534 10.4965 12.4184V14.3365H13.021C14.4991 13.0013 15.3508 11.0268 15.3508 8.69209Z" fill="#BDBDBD"/>
<path d="M7.82954 16.1896C9.9429 16.1896 11.7223 15.5098 13.0199 14.3377L10.4954 12.4196C9.7928 12.8863 8.88785 13.1527 7.82954 13.1527C5.78689 13.1527 4.05313 11.8037 3.43315 9.98584H0.83252V11.9625C1.48433 13.2332 2.48381 14.3014 3.71937 15.0478C4.95493 15.7943 6.37794 16.1896 7.82954 16.1896Z" fill="#BDBDBD"/>
<path d="M3.43453 9.98577C3.10677 9.03319 3.10677 8.00162 3.43453 7.04904V5.07239H0.833891C0.285567 6.14133 0 7.32108 0 8.51741C0 9.71373 0.285567 10.8935 0.833891 11.9624L3.43453 9.98577Z" fill="#BDBDBD"/>
<path d="M7.82954 3.88201C8.94635 3.86413 10.0255 4.27753 10.8337 5.03283L13.0689 2.84307C11.6515 1.53888 9.77389 0.82286 7.82954 0.845108C6.37794 0.845173 4.95493 1.2405 3.71937 1.98694C2.48381 2.73339 1.48433 3.80158 0.83252 5.07226L3.43315 7.04891C4.05313 5.23103 5.78689 3.88201 7.82954 3.88201Z" fill="#BDBDBD"/>
</svg>
