<svg width="24" height="24" viewBox="0 0 24 24" fill="none" xmlns="http://www.w3.org/2000/svg">
<path d="M11.9978 7.99815C9.7943 7.99815 7.99612 9.79633 7.99612 11.9998C7.99612 14.2032 9.7943 16.0014 11.9978 16.0014C14.2012 16.0014 15.9994 14.2032 15.9994 11.9998C15.9994 9.79633 14.2012 7.99815 11.9978 7.99815ZM23.9996 11.9998C23.9996 10.3427 24.0146 8.70061 23.9216 7.04652C23.8285 5.12526 23.3902 3.42014 21.9853 2.01522C20.5774 0.607291 18.8753 0.172005 16.954 0.0789442C15.2969 -0.014117 13.6548 0.000892919 12.0008 0.000892919C10.3437 0.000892919 8.70159 -0.014117 7.0475 0.0789442C5.12624 0.172005 3.42112 0.610293 2.01619 2.01522C0.608268 3.42314 0.172982 5.12526 0.0799207 7.04652C-0.0131404 8.70361 0.00186948 10.3457 0.00186948 11.9998C0.00186948 13.6539 -0.0131404 15.2989 0.0799207 16.953C0.172982 18.8743 0.61127 20.5794 2.01619 21.9843C3.42412 23.3923 5.12624 23.8275 7.0475 23.9206C8.70459 24.0137 10.3467 23.9987 12.0008 23.9987C13.6578 23.9987 15.2999 24.0137 16.954 23.9206C18.8753 23.8275 20.5804 23.3893 21.9853 21.9843C23.3932 20.5764 23.8285 18.8743 23.9216 16.953C24.0177 15.2989 23.9996 13.6569 23.9996 11.9998ZM11.9978 18.1568C8.59051 18.1568 5.84071 15.407 5.84071 11.9998C5.84071 8.59254 8.59051 5.84273 11.9978 5.84273C15.405 5.84273 18.1548 8.59254 18.1548 11.9998C18.1548 15.407 15.405 18.1568 11.9978 18.1568ZM18.407 7.02851C17.6114 7.02851 16.969 6.38609 16.969 5.59057C16.969 4.79504 17.6114 4.15262 18.407 4.15262C19.2025 4.15262 19.8449 4.79504 19.8449 5.59057C19.8451 5.77947 19.8081 5.96656 19.7359 6.14112C19.6638 6.31569 19.5578 6.4743 19.4243 6.60787C19.2907 6.74145 19.1321 6.84736 18.9575 6.91954C18.783 6.99172 18.5959 7.02875 18.407 7.02851Z" fill="#282828"/>
</svg>
