<svg width="43" height="25" viewBox="0 0 43 25" fill="none" xmlns="http://www.w3.org/2000/svg">
<path d="M21.3397 21.711C23.8777 19.4086 25.4806 16.1195 25.4806 12.5015C25.4806 8.81773 23.8777 5.52863 21.3397 3.29204C19.069 1.31858 16.1303 0.0687256 12.8577 0.0687256C5.84494 0.0687256 0.167969 5.6602 0.167969 12.5015C0.167969 19.4086 5.84494 25.0001 12.8577 25.0001C16.1303 24.9343 19.069 23.6845 21.3397 21.711Z" fill="#BDBDBD"/>
<path d="M21.3398 21.7081C23.8778 19.4058 25.4807 16.1167 25.4807 12.4987C25.4807 8.81487 23.8778 5.52577 21.3398 3.28918" fill="#BDBDBD"/>
<path d="M21.3398 21.7081C23.8778 19.4058 25.4807 16.1167 25.4807 12.4987C25.4807 8.81487 23.8778 5.52577 21.3398 3.28918" stroke="#BDBDBD" stroke-width="0.3097"/>
<path d="M29.822 0C26.5494 0 23.5439 1.24985 21.3399 3.22331C20.8724 3.61801 20.4717 4.07848 20.0709 4.53895H22.6089C22.9428 4.93365 23.2767 5.39412 23.5439 5.85459H19.0691C18.802 6.24929 18.5348 6.70976 18.3344 7.17023H24.2786C24.4789 7.63071 24.6793 8.0254 24.8129 8.48587H17.8001C17.6666 8.94635 17.533 9.34104 17.3994 9.80151H25.1468C25.3472 10.6567 25.414 11.5118 25.414 12.4328C25.414 13.8142 25.2136 15.1299 24.7461 16.3797H17.7334C17.8669 16.8402 18.0673 17.3007 18.2676 17.6954H24.2118C24.0114 18.1558 23.7443 18.6163 23.4771 19.011H19.0023C19.2695 19.4715 19.6034 19.9319 19.9373 20.3266H22.4753C22.0746 20.7871 21.6738 21.2476 21.2063 21.6423C23.4771 23.6157 26.4158 24.8656 29.6884 24.8656C36.7011 24.8656 42.3113 19.2741 42.3113 12.367C42.5117 5.59147 36.8347 0 29.822 0Z" fill="#BDBDBD"/>
<path d="M11.2547 15.5248H9.65183L10.5869 10.6569L8.44966 15.5248H7.04711L6.77996 10.7227L5.84491 15.5248H4.44238L5.64456 9.20972H8.11572L8.24928 13.1566L9.98577 9.20972H12.5237L11.2547 15.5248Z" fill="white"/>
<path d="M28.8868 15.5247C28.486 15.6562 28.0853 15.722 27.7514 15.722C26.9499 15.722 26.4824 15.3273 26.4824 14.6037C26.4824 14.4722 26.4824 14.2748 26.5492 14.1433L26.616 13.617L26.6828 13.2223L27.4174 9.27539H28.9536L28.7532 10.4595H29.5547L29.3543 11.7093H28.5528L28.1521 13.8801C28.1521 13.9459 28.1521 14.0775 28.1521 14.0775C28.1521 14.3406 28.3525 14.4722 28.6864 14.4722C28.8868 14.4722 29.0204 14.4722 29.0871 14.4064L28.8868 15.5247Z" fill="white"/>
<path d="M33.4272 10.4592C33.2936 10.3934 33.2936 10.3934 33.2268 10.3934C33.16 10.3934 33.0933 10.3934 33.0933 10.3934C33.0265 10.3934 32.9597 10.3934 32.8929 10.3934C32.3586 10.3934 32.0247 10.5908 31.4904 11.2486L31.6239 10.4592H30.3549L29.4199 15.5902H31.0228C31.5571 12.4327 31.8243 11.9064 32.5589 11.9064C32.6257 11.9064 32.6925 11.9064 32.7593 11.9064L32.9597 11.9722L33.4272 10.4592Z" fill="white"/>
<path d="M22.6079 12.0383C22.6079 12.6962 23.0087 13.1566 23.8101 13.4855C24.478 13.7487 24.5448 13.8144 24.5448 14.0776C24.5448 14.4065 24.2776 14.538 23.6097 14.538C23.1422 14.538 22.6747 14.4723 22.2072 14.3407L22.0068 15.5248H22.0736L22.3408 15.5906C22.4076 15.5906 22.6079 15.6563 22.7415 15.6563C23.1422 15.6563 23.4094 15.7221 23.6097 15.7221C25.2794 15.7221 26.0809 15.1959 26.0809 14.0118C26.0809 13.2882 25.747 12.8935 24.9455 12.5646C24.2776 12.3015 24.2108 12.2357 24.2108 11.9726C24.2108 11.7094 24.478 11.5779 25.0123 11.5779C25.3462 11.5779 25.747 11.5779 26.1477 11.6436L26.3481 10.4596C25.9473 10.3938 25.3462 10.328 24.9455 10.328C23.209 10.328 22.6079 11.1174 22.6079 12.0383Z" fill="white"/>
<path d="M15.2625 13.2882C15.0621 13.2882 14.9953 13.2882 14.9285 13.2882C14.0603 13.2882 13.5928 13.5513 13.5928 14.0776C13.5928 14.4065 13.7931 14.6038 14.1271 14.6038C14.7282 14.5381 15.1957 14.0118 15.2625 13.2882ZM16.3979 15.5248H15.0621L15.1289 14.9985C14.7282 15.3932 14.1939 15.5906 13.4592 15.5906C12.5909 15.5906 12.0566 14.9985 12.0566 14.2091C12.0566 12.9593 13.0585 12.2357 14.795 12.2357C14.9953 12.2357 15.1957 12.2357 15.4628 12.3015C15.5296 12.1041 15.5296 12.0383 15.5296 11.9726C15.5296 11.6436 15.2624 11.5121 14.5278 11.5121C14.0603 11.5121 13.5928 11.5779 13.2588 11.6436L13.0585 11.7094L12.9249 11.7752L13.1253 10.5911C13.9267 10.3938 14.3942 10.328 14.9953 10.328C16.3311 10.328 17.0657 10.8543 17.0657 11.841C17.0657 12.1041 17.0657 12.3015 16.9322 12.8277L16.5982 14.6696L16.5314 14.9985L16.4646 15.2617V15.459L16.3979 15.5248Z" fill="white"/>
<path d="M20.7386 12.3671C20.7386 12.2356 20.7386 12.1698 20.7386 12.104C20.7386 11.7093 20.4714 11.4462 20.0039 11.4462C19.4696 11.4462 19.1357 11.7751 19.0021 12.3671H20.7386ZM21.54 15.4589C21.0057 15.5904 20.4714 15.6562 19.9371 15.6562C18.2007 15.6562 17.2656 14.8668 17.2656 13.3538C17.2656 11.5777 18.401 10.2621 20.0039 10.2621C21.2729 10.2621 22.1412 10.9857 22.1412 12.104C22.1412 12.4987 22.0744 12.8276 21.9408 13.3538H18.8018C18.8018 13.4196 18.8018 13.4854 18.8018 13.4854C18.8018 14.0774 19.2693 14.4064 20.2043 14.4064C20.7386 14.4064 21.2729 14.2748 21.874 14.0774L21.54 15.4589Z" fill="white"/>
<path d="M36.6999 12.5646C36.6999 12.0383 36.4995 11.5121 35.8316 11.5121C35.0302 11.5121 34.5626 12.433 34.5626 13.2882C34.5626 14.0118 34.8966 14.4723 35.4977 14.4723C35.8316 14.4723 36.5663 14.0118 36.6999 13.2224C36.6999 13.0251 36.6999 12.7619 36.6999 12.5646ZM38.3696 13.2224C38.1024 14.9327 36.9002 15.7221 35.2973 15.7221C33.494 15.7221 32.8262 14.6696 32.8262 13.354C32.8262 11.5121 34.0283 10.328 35.8984 10.328C37.5681 10.328 38.3696 11.3147 38.3696 12.6304C38.4363 12.8935 38.4363 12.8935 38.3696 13.2224Z" fill="white"/>
</svg>
