<svg width="44" height="26" viewBox="0 0 44 26" fill="none" xmlns="http://www.w3.org/2000/svg">
<path d="M43.4975 12.848C43.4975 19.8979 37.6869 25.696 30.4738 25.696C23.3275 25.696 17.4502 19.8979 17.4502 12.848C17.4502 5.79806 23.2607 0 30.4071 0C37.6869 0 43.4975 5.79806 43.4975 12.848Z" fill="#BDBDBD"/>
<path d="M26.0655 12.9139C26.0655 11.9914 25.9319 11.069 25.7983 10.2125H17.7838C17.8505 9.75128 17.9841 9.35596 18.1177 8.82887H25.264C25.1304 8.36766 24.9301 7.90645 24.7297 7.44524H18.652C18.8524 6.98403 19.1195 6.58871 19.3867 6.06161H23.995C23.7279 5.6004 23.3939 5.13919 22.9932 4.67798H20.4553C20.856 4.21677 21.2567 3.82145 21.791 3.36024C19.5202 1.25185 16.448 0 13.0418 0C5.9623 0.197661 0.0849609 5.79806 0.0849609 12.848C0.0849609 19.8979 5.89551 25.696 13.1086 25.696C16.5148 25.696 19.5202 24.3782 21.8578 22.3357C22.3253 21.9404 22.7261 21.4792 23.1936 20.9521H20.5221C20.1881 20.5568 19.8542 20.0956 19.587 19.6343H24.1286C24.3958 19.239 24.6629 18.7778 24.8633 18.2507H18.7856C18.5852 17.8554 18.3849 17.3942 18.2513 16.8671H25.3976C25.7983 15.6811 26.0655 14.3634 26.0655 12.9139Z" fill="#BDBDBD"/>
<path d="M17.7175 16.1422L17.9179 14.9562C17.8511 14.9562 17.7175 15.0221 17.5839 15.0221C17.1164 15.0221 17.0496 14.7586 17.1164 14.6268L17.5171 12.2549H18.2518L18.4522 10.9371H17.7843L17.9179 10.1465H16.5153C16.5153 10.1465 15.7139 14.6268 15.7139 15.1539C15.7139 15.9445 16.1814 16.3399 16.8493 16.3399C17.25 16.3399 17.5839 16.2081 17.7175 16.1422Z" fill="white"/>
<path d="M18.1846 13.9681C18.1846 15.8788 19.5203 16.3401 20.5889 16.3401C21.5908 16.3401 22.0583 16.1424 22.0583 16.1424L22.3254 14.8246C22.3254 14.8246 21.5908 15.1541 20.8561 15.1541C19.32 15.1541 19.5871 14.034 19.5871 14.034H22.3922C22.3922 14.034 22.5926 13.1775 22.5926 12.7821C22.5926 11.9256 22.1251 10.8055 20.5889 10.8055C19.2532 10.7397 18.1846 12.2551 18.1846 13.9681ZM20.5889 11.9915C21.3236 11.9915 21.19 12.848 21.19 12.9139H19.6539C19.7207 12.848 19.8543 11.9915 20.5889 11.9915Z" fill="white"/>
<path d="M29.3396 16.1423L29.6068 14.6269C29.6068 14.6269 28.9389 14.9563 28.4046 14.9563C27.4696 14.9563 27.002 14.2315 27.002 13.375C27.002 11.7278 27.8035 10.8713 28.8053 10.8713C29.4732 10.8713 30.0743 11.2666 30.0743 11.2666L30.2747 9.81711C30.2747 9.81711 29.4732 9.48767 28.6717 9.48767C27.0688 9.48767 25.5327 10.8713 25.5327 13.4409C25.5327 15.154 26.3342 16.274 28.0039 16.274C28.605 16.3399 29.3396 16.1423 29.3396 16.1423Z" fill="white"/>
<path d="M10.1711 10.7394C9.2361 10.7394 8.50144 11.0029 8.50144 11.0029L8.30107 12.1889C8.30107 12.1889 8.90217 11.9253 9.8372 11.9253C10.3047 11.9253 10.7054 11.9912 10.7054 12.3866C10.7054 12.6501 10.6387 12.716 10.6387 12.716H10.0376C8.83538 12.716 7.56641 13.1772 7.56641 14.7585C7.56641 16.0103 8.36786 16.2739 8.90216 16.2739C9.8372 16.2739 10.3047 15.6809 10.3715 15.6809L10.3047 16.208H11.4401L11.9744 12.4524C11.9744 10.8053 10.6387 10.7394 10.1711 10.7394ZM10.4383 13.7702C10.4383 13.9678 10.3047 15.0879 9.50326 15.0879C9.10253 15.0879 8.96895 14.7585 8.96895 14.5608C8.96895 14.2314 9.16932 13.7702 10.2379 13.7702C10.3715 13.7702 10.4383 13.7702 10.4383 13.7702Z" fill="white"/>
<path d="M13.3093 16.2742C13.6433 16.2742 15.3798 16.3401 15.3798 14.4953C15.3798 12.7822 13.7101 13.1116 13.7101 12.4528C13.7101 12.1233 13.9772 11.9916 14.4447 11.9916C14.6451 11.9916 15.3798 12.0575 15.3798 12.0575L15.5801 10.8056C15.5801 10.8056 15.1126 10.6738 14.2444 10.6738C13.2426 10.6738 12.174 11.0691 12.174 12.4528C12.174 14.0341 13.9104 13.9023 13.9104 14.4953C13.9104 14.8906 13.4429 14.9565 13.109 14.9565C12.5079 14.9565 11.84 14.7588 11.84 14.7588L11.6396 16.0107C11.7732 16.1425 12.174 16.2742 13.3093 16.2742Z" fill="white"/>
<path d="M40.8262 9.68555L40.5591 11.5304C40.5591 11.5304 40.0248 10.8715 39.2233 10.8715C37.9543 10.8715 36.8857 12.3869 36.8857 14.1659C36.8857 15.2859 37.42 16.406 38.6222 16.406C39.4237 16.406 39.958 15.8789 39.958 15.8789L39.8912 16.3401H41.2937L42.2956 9.81732L40.8262 9.68555ZM40.1584 13.2434C40.1584 13.9682 39.8244 14.9565 39.023 14.9565C38.5554 14.9565 38.2883 14.5612 38.2883 13.8364C38.2883 12.7164 38.7558 12.0575 39.4237 12.0575C39.8912 12.1234 40.1584 12.4528 40.1584 13.2434Z" fill="white"/>
<path d="M2.62336 16.2084L3.42481 11.3327L3.55839 16.2084H4.49342L6.29669 11.3327L5.56202 16.2084H7.03136L8.16675 9.68555H5.89596L4.49342 13.7047L4.42663 9.68555H2.42299L1.2876 16.2084H2.62336Z" fill="white"/>
<path d="M23.9951 16.2084C24.3958 13.9683 24.4626 12.1234 25.4644 12.4529C25.598 11.5963 25.7984 11.201 25.932 10.8716H25.6648C25.0637 10.8716 24.5294 11.6622 24.5294 11.6622L24.663 10.9375H23.3272L22.459 16.2084H23.9951Z" fill="white"/>
<path d="M32.5452 10.7394C31.6101 10.7394 30.8755 11.0029 30.8755 11.0029L30.6751 12.1889C30.6751 12.1889 31.2762 11.9253 32.2112 11.9253C32.6787 11.9253 33.0795 11.9912 33.0795 12.3866C33.0795 12.6501 33.0127 12.716 33.0127 12.716H32.4116C31.2094 12.716 29.9404 13.1772 29.9404 14.7585C29.9404 16.0103 30.7419 16.2739 31.2762 16.2739C32.2112 16.2739 32.6787 15.6809 32.7455 15.6809L32.6787 16.208H33.9477L34.482 12.4524C34.482 10.8053 33.0127 10.7394 32.5452 10.7394ZM32.8791 13.7702C32.8791 13.9678 32.7455 15.0879 31.9441 15.0879C31.5433 15.0879 31.4098 14.7585 31.4098 14.5608C31.4098 14.2314 31.6101 13.7702 32.6787 13.7702C32.8123 13.7702 32.8123 13.7702 32.8791 13.7702Z" fill="white"/>
<path d="M35.5498 16.2084C35.9505 13.9683 36.0173 12.1234 37.0191 12.4529C37.1527 11.5963 37.3531 11.201 37.4866 10.8716H37.2195C36.6184 10.8716 36.0841 11.6622 36.0841 11.6622L36.2177 10.9375H34.8819L34.0137 16.2084H35.5498Z" fill="white"/>
</svg>
