<svg width="24" height="24" viewBox="0 0 24 24" fill="none" xmlns="http://www.w3.org/2000/svg">
<path d="M22.68 1.32019C21.8001 0.440119 20.74 0 19.5006 0H4.50046C3.26099 0 2.20092 0.440119 1.32068 1.32019C0.440607 2.20043 0.000488281 3.26045 0.000488281 4.49997V19.4999C0.000488281 20.7393 0.440607 21.7994 1.32068 22.6797C2.20092 23.5599 3.26099 24 4.50046 24H19.5004C20.7399 24 21.7999 23.5599 22.6798 22.6797C23.56 21.7994 24.0002 20.7394 24.0002 19.4999V4.49997C24.0001 3.26045 23.56 2.20027 22.68 1.32019ZM19.6562 18.2174C19.4375 18.6965 18.9453 19.1133 18.1798 19.4677C17.4142 19.822 16.7343 19.9992 16.1404 19.9992C15.9737 19.9992 15.7966 19.9863 15.6091 19.9603C15.4216 19.9341 15.263 19.9082 15.1328 19.8821C15.0027 19.8561 14.8306 19.8093 14.6172 19.7415C14.4035 19.6739 14.2497 19.6217 14.1563 19.5853C14.0623 19.5489 13.8906 19.4838 13.6407 19.3901C13.3907 19.2961 13.2343 19.2388 13.1721 19.2184C11.4638 18.593 9.79431 17.4656 8.1642 15.8355C6.53408 14.205 5.40642 12.5358 4.78138 10.8278C4.76069 10.7652 4.70339 10.6089 4.60953 10.359C4.51584 10.1092 4.45055 9.9372 4.4141 9.84357C4.37787 9.74982 4.32572 9.59614 4.25796 9.38276C4.19026 9.16916 4.14353 8.99742 4.11742 8.86706C4.09126 8.73703 4.06543 8.57827 4.03933 8.39071C4.01328 8.20316 4.00031 8.02585 4.00031 7.85931C4.00031 7.26552 4.17746 6.58586 4.53171 5.82022C4.88591 5.05469 5.30249 4.56252 5.78174 4.34372C6.33383 4.11447 6.85987 3.99987 7.35992 3.99987C7.47435 3.99987 7.55781 4.01038 7.60975 4.03117C7.66191 4.05224 7.74788 4.14577 7.86774 4.31247C7.98759 4.47917 8.11773 4.69004 8.25833 4.94529C8.39898 5.20059 8.537 5.44802 8.67239 5.6875C8.80779 5.92705 8.93804 6.16391 9.0631 6.39847C9.18809 6.63265 9.26619 6.78129 9.29738 6.84357C9.32863 6.89594 9.39639 6.99472 9.50048 7.14068C9.60457 7.28642 9.68288 7.41645 9.73488 7.53116C9.78687 7.64576 9.81297 7.75516 9.81297 7.85931C9.81297 8.01578 9.70609 8.20579 9.4926 8.42957C9.27899 8.65357 9.0446 8.8594 8.78935 9.04695C8.5341 9.2345 8.29981 9.43508 8.08626 9.64863C7.87288 9.86201 7.766 10.0365 7.766 10.1719C7.766 10.2449 7.78422 10.3307 7.82072 10.4297C7.85717 10.5289 7.89105 10.6096 7.9223 10.672C7.95355 10.7344 8.00313 10.823 8.07072 10.9377C8.13842 11.0524 8.1828 11.1253 8.20349 11.1566C8.77632 12.1878 9.4353 13.0759 10.1799 13.8208C10.9249 14.5658 11.8128 15.2244 12.8442 15.7974C12.8752 15.8184 12.9483 15.8626 13.0633 15.9304C13.1777 15.9978 13.2665 16.0473 13.3289 16.0785C13.3914 16.1098 13.4719 16.1437 13.5711 16.1799C13.6702 16.2162 13.7561 16.2345 13.8293 16.2345C13.9955 16.2345 14.2247 16.0628 14.5167 15.7191C14.8083 15.3751 15.1053 15.034 15.4074 14.6954C15.7093 14.3572 15.9539 14.1879 16.1418 14.1879C16.2459 14.1879 16.355 14.2138 16.4701 14.2658C16.5847 14.3179 16.7147 14.3962 16.8604 14.5003C17.0065 14.6048 17.1054 14.6722 17.1575 14.7039L17.9852 15.1566C18.5374 15.4484 18.9983 15.7061 19.3682 15.9301C19.7381 16.1541 19.9387 16.3077 19.97 16.3908C19.9907 16.4429 20.0008 16.5265 20.0008 16.6411C20.0004 17.1406 19.8858 17.6667 19.6562 18.2174Z" fill="#282828"/>
</svg>
