<svg width="46" height="15" viewBox="0 0 46 15" fill="none" xmlns="http://www.w3.org/2000/svg">
<path d="M42.61 0.964844H39.7382C38.8699 0.964844 38.202 1.22839 37.8013 2.08492L32.3247 14.4058H36.1984C36.1984 14.4058 36.8663 12.7586 36.9999 12.3633C37.4006 12.3633 41.2075 12.3633 41.7418 12.3633C41.8754 12.8245 42.2093 14.3399 42.2093 14.3399H45.6823L42.61 0.964844ZM38.0685 9.59605C38.4024 8.8054 39.5378 5.84049 39.5378 5.84049C39.5378 5.90637 39.8717 5.04984 40.0053 4.58863L40.2725 5.7746C40.2725 5.7746 41.0071 9.00306 41.1407 9.66193H38.0685V9.59605Z" fill="#BDBDBD"/>
<path d="M32.5924 9.99128C32.5924 12.7585 30.0545 14.6034 26.114 14.6034C24.4443 14.6034 22.8414 14.2739 21.9731 13.8786L22.5074 10.8478L22.975 11.0455C24.1771 11.5726 24.9786 11.7702 26.4479 11.7702C27.5165 11.7702 28.6519 11.3749 28.6519 10.4525C28.6519 9.8595 28.1844 9.46418 26.7151 8.80531C25.3125 8.14644 23.4425 7.09225 23.4425 5.18152C23.4425 2.54604 26.0472 0.76709 29.7205 0.76709C31.1231 0.76709 32.3253 1.03064 33.0599 1.36007L32.5256 4.2591L32.2585 3.99556C31.5906 3.73201 30.7224 3.46846 29.4534 3.46846C28.0508 3.53435 27.383 4.12733 27.383 4.65443C27.383 5.24741 28.1844 5.70862 29.4534 6.3016C31.5906 7.28991 32.5924 8.40999 32.5924 9.99128Z" fill="#BDBDBD"/>
<path d="M0 1.09936L0.0667879 0.835815H5.81055C6.612 0.835815 7.2131 1.09936 7.41346 1.9559L8.68243 7.88573C7.41346 4.72315 4.47479 2.15356 0 1.09936Z" fill="#BDBDBD"/>
<path d="M16.7633 0.964447L10.9527 14.3395H7.01225L3.67285 3.13872C6.07722 4.65412 8.08085 7.02606 8.81552 8.67323L9.21625 10.0569L12.8228 0.89856H16.7633V0.964447Z" fill="#BDBDBD"/>
<path d="M18.299 0.89856H21.9723L19.6348 14.3395H15.9614L18.299 0.89856Z" fill="#BDBDBD"/>
</svg>
