<svg width="24" height="24" viewBox="0 0 24 24" fill="none" xmlns="http://www.w3.org/2000/svg">
<g clip-path="url(#clip0)">
<path d="M17.3954 14.535C17.1035 14.3735 15.6489 13.6062 15.3783 13.5024C15.1078 13.3928 14.9096 13.3408 14.714 13.6639C14.5158 13.9841 13.9532 14.6965 13.7764 14.9129C13.605 15.1263 13.4309 15.1523 13.1389 14.9936C11.4031 14.0591 10.2646 13.3264 9.12076 11.2121C8.81806 10.6497 9.42346 10.6901 9.98867 9.47572C10.0851 9.26228 10.0369 9.08056 9.96189 8.91903C9.88688 8.7575 9.29755 7.19415 9.05111 6.55669C8.8127 5.93654 8.56625 6.02308 8.38678 6.01154C8.21533 6 8.01979 6 7.82156 6C7.62333 6 7.30456 6.08076 7.034 6.39517C6.76345 6.71534 6 7.48548 6 9.04883C6 10.6122 7.05811 12.1265 7.20276 12.34C7.35277 12.5534 9.28416 15.7609 12.2495 17.1425C14.1247 18.0136 14.8587 18.0886 15.7962 17.9386C16.3668 17.8463 17.5428 17.1714 17.7865 16.4243C18.0303 15.6801 18.0303 15.0427 17.958 14.91C17.8857 14.7686 17.6874 14.6879 17.3954 14.535Z" fill="#282828"/>
<path d="M23.0675 7.34991C22.4621 5.91153 21.5943 4.62048 20.488 3.51156C19.3818 2.40533 18.0908 1.5348 16.6497 0.932131C15.1765 0.313389 13.6122 0 11.9998 0H11.9462C10.323 0.00803561 8.75069 0.32946 7.27214 0.961595C5.84448 1.5723 4.56414 2.44015 3.46861 3.54638C2.37309 4.65262 1.51328 5.93832 0.918646 7.37134C0.302583 8.85525 -0.00812779 10.4329 -9.21799e-05 12.0561C0.00794343 13.915 0.452581 15.7605 1.28561 17.4105V21.4819C1.28561 22.1622 1.83738 22.714 2.51773 22.714H6.59179C8.24177 23.547 10.0873 23.9917 11.9462 23.9997H12.0024C13.6069 23.9997 15.1631 23.689 16.6283 23.081C18.0613 22.4836 19.3497 21.6265 20.4532 20.531C21.5595 19.4355 22.43 18.1551 23.038 16.7275C23.6701 15.2489 23.9916 13.6766 23.9996 12.0534C24.0076 10.4222 23.6916 8.83917 23.0675 7.34991ZM19.0202 19.0819C17.1425 20.9408 14.6515 21.964 11.9998 21.964H11.9542C10.3391 21.956 8.73462 21.5542 7.31767 20.7988L7.09268 20.6783H3.3213V16.9069L3.20076 16.6819C2.44541 15.265 2.04363 13.6605 2.0356 12.0454C2.02488 9.37488 3.04541 6.86777 4.9177 4.9794C6.78732 3.09103 9.2864 2.0464 11.9569 2.03569H12.0024C13.3417 2.03569 14.6408 2.29551 15.8649 2.80979C17.0595 3.31067 18.1309 4.0312 19.0523 4.95262C19.9711 5.87135 20.6943 6.94545 21.1952 8.14008C21.7148 9.37756 21.9746 10.69 21.9693 12.0454C21.9532 14.7132 20.9059 17.2123 19.0202 19.0819Z" fill="#282828"/>
</g>
<defs>
<clipPath id="clip0">
<rect width="24" height="24" fill="white"/>
</clipPath>
</defs>
</svg>
