<svg width="24" height="17" viewBox="0 0 24 17" fill="none" xmlns="http://www.w3.org/2000/svg">
<path d="M23.4991 2.62768C23.3625 2.11885 23.0946 1.65483 22.7223 1.28206C22.35 0.909287 21.8863 0.640836 21.3777 0.503572C19.5054 1.02179e-07 12 0 12 0C12 0 4.49464 -1.02179e-07 2.62232 0.500893C2.11345 0.637712 1.64953 0.906014 1.27716 1.27886C0.904787 1.6517 0.637069 2.11595 0.500893 2.625C-1.02179e-07 4.5 0 8.41071 0 8.41071C0 8.41071 -1.02179e-07 12.3214 0.500893 14.1938C0.776786 15.2277 1.59107 16.042 2.62232 16.3179C4.49464 16.8214 12 16.8214 12 16.8214C12 16.8214 19.5054 16.8214 21.3777 16.3179C22.4116 16.042 23.2232 15.2277 23.4991 14.1938C24 12.3214 24 8.41071 24 8.41071C24 8.41071 24 4.5 23.4991 2.62768ZM9.61607 12V4.82143L15.8304 8.38393L9.61607 12Z" fill="#282828"/>
</svg>
