<svg width="24" height="24" viewBox="0 0 24 24" fill="none" xmlns="http://www.w3.org/2000/svg">
<path d="M22.8175 0.854431H1.18262C1.13952 0.854407 1.09684 0.862877 1.05702 0.879358C1.0172 0.895839 0.981017 0.920008 0.950543 0.950482C0.920069 0.980956 0.8959 1.01714 0.879419 1.05696C0.862938 1.09678 0.854468 1.13946 0.854492 1.18256V5.90343C0.854492 5.99045 0.889062 6.07391 0.950598 6.13545C1.01213 6.19698 1.09559 6.23156 1.18262 6.23156H1.77324V22.8174C1.77322 22.8605 1.78169 22.9032 1.79817 22.943C1.81465 22.9828 1.83882 23.019 1.86929 23.0495C1.89977 23.08 1.93595 23.1041 1.97577 23.1206C2.01559 23.1371 2.05827 23.1456 2.10137 23.1456H21.8987C21.9418 23.1456 21.9845 23.1371 22.0243 23.1206C22.0642 23.1041 22.1003 23.08 22.1308 23.0495C22.1613 23.019 22.1855 22.9828 22.2019 22.943C22.2184 22.9032 22.2269 22.8605 22.2269 22.8174V6.23156H22.8175C22.9045 6.23156 22.988 6.19698 23.0495 6.13545C23.111 6.07391 23.1456 5.99045 23.1456 5.90343V1.18256C23.1456 1.13946 23.1372 1.09678 23.1207 1.05696C23.1042 1.01714 23.08 0.980956 23.0496 0.950482C23.0191 0.920008 22.9829 0.895839 22.9431 0.879358C22.9033 0.862877 22.8606 0.854407 22.8175 0.854431ZM14.0612 9.79556L12.2322 7.96631C12.1695 7.90702 12.0865 7.87398 12.0002 7.87398C11.914 7.87398 11.831 7.90702 11.7683 7.96631L9.93924 9.79556V1.51068H14.0611L14.0612 9.79556ZM1.51074 1.51068H9.2828V5.57531H1.51074V1.51068ZM21.5706 22.4893H2.42949V6.23156H9.2828V10.5879C9.28265 10.653 9.30184 10.7166 9.33795 10.7708C9.37405 10.8249 9.42543 10.8671 9.48556 10.8919C9.54569 10.9168 9.61185 10.9232 9.67564 10.9104C9.73943 10.8976 9.79797 10.866 9.8438 10.8199L12.0001 8.66249L14.1563 10.8201C14.2022 10.8659 14.2606 10.8971 14.3243 10.9098C14.3879 10.9224 14.4538 10.9159 14.5138 10.8911C14.5737 10.8663 14.625 10.8243 14.661 10.7703C14.6971 10.7164 14.7163 10.653 14.7164 10.5881V6.23156H21.5697L21.5706 22.4893ZM22.4894 5.57531H14.7173V1.51068H22.4894V5.57531Z" fill="black"/>
<path d="M9.85399 16.614C9.79243 16.5525 9.70898 16.5179 9.62196 16.5179C9.53495 16.5179 9.45149 16.5525 9.38993 16.614L7.63118 18.3735C7.58531 18.4194 7.55408 18.4779 7.54144 18.5415C7.5288 18.6051 7.53532 18.6711 7.56016 18.7311C7.58501 18.791 7.62707 18.8422 7.68102 18.8783C7.73498 18.9143 7.79842 18.9336 7.86331 18.9336H8.67368V20.9895C8.67365 21.0326 8.68213 21.0753 8.69861 21.1151C8.71509 21.1549 8.73926 21.1911 8.76973 21.2216C8.8002 21.252 8.83639 21.2762 8.87621 21.2927C8.91603 21.3092 8.95871 21.3176 9.0018 21.3176H10.2419C10.285 21.3176 10.3277 21.3092 10.3675 21.2927C10.4073 21.2762 10.4435 21.252 10.474 21.2216C10.5045 21.1911 10.5286 21.1549 10.5451 21.1151C10.5616 21.0753 10.5701 21.0326 10.5701 20.9895V18.9336H11.3812C11.4461 18.9335 11.5095 18.9143 11.5634 18.8782C11.6173 18.8421 11.6594 18.7909 11.6842 18.731C11.709 18.671 11.7155 18.6051 11.7028 18.5415C11.6902 18.4778 11.659 18.4194 11.6131 18.3735L9.85399 16.614ZM10.2419 18.2773C10.1549 18.2773 10.0714 18.3119 10.0099 18.3734C9.94837 18.4349 9.9138 18.5184 9.9138 18.6054V20.6614H9.32993V18.6054C9.32993 18.5184 9.29536 18.4349 9.23382 18.3734C9.17229 18.3119 9.08883 18.2773 9.0018 18.2773H8.65456L9.62187 17.31L10.5894 18.2773H10.2419Z" fill="black"/>
<path d="M14.6099 16.614C14.5484 16.5525 14.4649 16.5179 14.3779 16.5179C14.2909 16.5179 14.2074 16.5525 14.1459 16.614L12.3866 18.3735C12.3407 18.4194 12.3095 18.4778 12.2968 18.5415C12.2842 18.6051 12.2907 18.671 12.3155 18.731C12.3403 18.7909 12.3823 18.8421 12.4363 18.8782C12.4902 18.9143 12.5536 18.9335 12.6185 18.9336H13.4298V20.9895C13.4298 21.0326 13.4382 21.0753 13.4547 21.1151C13.4712 21.1549 13.4954 21.1911 13.5259 21.2216C13.5563 21.252 13.5925 21.2762 13.6323 21.2927C13.6721 21.3092 13.7148 21.3176 13.7579 21.3176H14.9981C15.0411 21.3176 15.0838 21.3092 15.1236 21.2927C15.1635 21.2762 15.1997 21.252 15.2301 21.2216C15.2606 21.1911 15.2848 21.1549 15.3012 21.1151C15.3177 21.0753 15.3262 21.0326 15.3262 20.9895V18.9336H16.1373C16.2021 18.9334 16.2655 18.9141 16.3193 18.878C16.3731 18.8419 16.4151 18.7906 16.4398 18.7307C16.4646 18.6708 16.471 18.6049 16.4584 18.5413C16.4457 18.4777 16.4145 18.4193 16.3687 18.3735L14.6099 16.614ZM14.9981 18.2773C14.911 18.2773 14.8276 18.3119 14.766 18.3734C14.7045 18.4349 14.6699 18.5184 14.6699 18.6054V20.6614H14.0861V18.6054C14.0861 18.5184 14.0515 18.4349 13.9899 18.3734C13.9284 18.3119 13.8449 18.2773 13.7579 18.2773H13.4105L14.378 17.31L15.3453 18.2773H14.9981Z" fill="black"/>
<path d="M17.1958 3.01971H17.7142C17.8013 3.01971 17.8847 2.98514 17.9463 2.92361C18.0078 2.86207 18.0424 2.77861 18.0424 2.69159C18.0424 2.60457 18.0078 2.52111 17.9463 2.45957C17.8847 2.39803 17.8013 2.36346 17.7142 2.36346H17.1958C17.1088 2.36346 17.0253 2.39803 16.9638 2.45957C16.9022 2.52111 16.8677 2.60457 16.8677 2.69159C16.8677 2.77861 16.9022 2.86207 16.9638 2.92361C17.0253 2.98514 17.1088 3.01971 17.1958 3.01971Z" fill="black"/>
<path d="M19.0078 3.01971H21.0124C21.0994 3.01971 21.1829 2.98514 21.2444 2.92361C21.3059 2.86207 21.3405 2.77861 21.3405 2.69159C21.3405 2.60457 21.3059 2.52111 21.2444 2.45957C21.1829 2.39803 21.0994 2.36346 21.0124 2.36346H19.0078C18.9208 2.36346 18.8373 2.39803 18.7758 2.45957C18.7143 2.52111 18.6797 2.60457 18.6797 2.69159C18.6797 2.77861 18.7143 2.86207 18.7758 2.92361C18.8373 2.98514 18.9208 3.01971 19.0078 3.01971Z" fill="black"/>
</svg>
