<svg width="23" height="19" viewBox="0 0 23 19" fill="none" xmlns="http://www.w3.org/2000/svg">
<path d="M20.8704 2.92308H17.25L16.3875 0.553297C16.3279 0.391139 16.2187 0.250972 16.0748 0.151942C15.9309 0.0529113 15.7594 -0.000152057 15.5836 3.27288e-07H7.41644C7.05706 3.27288e-07 6.73495 0.221841 6.61516 0.553297L5.75 2.92308H2.12963C0.953009 2.92308 0 3.85742 0 5.01099V16.9121C0 18.0657 0.953009 19 2.12963 19H20.8704C22.047 19 23 18.0657 23 16.9121V5.01099C23 3.85742 22.047 2.92308 20.8704 2.92308ZM11.5 14.8242C9.14676 14.8242 7.24074 12.9555 7.24074 10.6484C7.24074 8.34121 9.14676 6.47253 11.5 6.47253C13.8532 6.47253 15.7593 8.34121 15.7593 10.6484C15.7593 12.9555 13.8532 14.8242 11.5 14.8242ZM8.94444 10.6484C8.94444 11.3129 9.21369 11.9501 9.69295 12.42C10.1722 12.8899 10.8222 13.1538 11.5 13.1538C12.1778 13.1538 12.8278 12.8899 13.3071 12.42C13.7863 11.9501 14.0556 11.3129 14.0556 10.6484C14.0556 9.98385 13.7863 9.34657 13.3071 8.8767C12.8278 8.40683 12.1778 8.14286 11.5 8.14286C10.8222 8.14286 10.1722 8.40683 9.69295 8.8767C9.21369 9.34657 8.94444 9.98385 8.94444 10.6484Z" fill="#BDBDBD"/>
</svg>
