<svg width="24" height="24" viewBox="0 0 24 24" fill="none" xmlns="http://www.w3.org/2000/svg">
<path d="M21.7749 5.00006H7.557L7.10306 2.83874H8.66569C8.7527 2.83869 8.83613 2.80411 8.89765 2.74258C8.95918 2.68106 8.99376 2.59763 8.99381 2.51062V1.18256C8.99381 1.09553 8.95924 1.01207 8.89771 0.950537C8.83617 0.889001 8.75271 0.854431 8.66569 0.854431H1.18237C1.13928 0.854407 1.0966 0.862877 1.05678 0.879358C1.01695 0.895839 0.980773 0.920008 0.950299 0.950482C0.919825 0.980956 0.895656 1.01714 0.879175 1.05696C0.862694 1.09678 0.854223 1.13946 0.854248 1.18256V2.51062C0.854248 2.55371 0.862735 2.59638 0.879225 2.63619C0.895715 2.676 0.919884 2.71217 0.950354 2.74264C0.980823 2.77311 1.017 2.79728 1.05681 2.81377C1.09662 2.83026 1.13928 2.83874 1.18237 2.83874H5.09981L5.63681 5.39568L5.91806 6.73218L7.92581 16.2947C7.94133 16.3684 7.98171 16.4345 8.04019 16.482C8.09866 16.5295 8.17168 16.5554 8.247 16.5555H11.6649L10.8264 17.5492C10.1883 17.3141 9.48764 17.3112 8.84754 17.5411C8.20745 17.771 7.66877 18.219 7.32607 18.8065C6.98337 19.3939 6.85855 20.0834 6.9735 20.7537C7.08845 21.424 7.43584 22.0325 7.95469 22.4722C8.47354 22.912 9.1307 23.1549 9.81082 23.1584C10.4909 23.1619 11.1506 22.9258 11.6739 22.4914C12.1973 22.057 12.5509 21.4522 12.6728 20.7831C12.7946 20.114 12.6769 19.4233 12.3403 18.8323L13.1407 17.8841H14.8933L15.6937 18.8323C15.3546 19.4256 15.2353 20.1195 15.3569 20.792C15.4786 21.4645 15.8333 22.0726 16.3589 22.5095C16.8844 22.9464 17.5471 23.1842 18.2305 23.1809C18.9139 23.1777 19.5743 22.9338 20.0957 22.4919C20.6171 22.0501 20.9661 21.4386 21.0814 20.765C21.1967 20.0914 21.0709 19.3987 20.7261 18.8086C20.3813 18.2185 19.8396 17.7688 19.1962 17.5385C18.5528 17.3082 17.8487 17.312 17.2078 17.5492L16.3691 16.5555H19.7884C19.8637 16.5555 19.9367 16.5295 19.9951 16.482C20.0536 16.4345 20.0939 16.3684 20.1094 16.2947L22.0624 6.99374H22.8173C22.8603 6.99377 22.903 6.9853 22.9429 6.96882C22.9827 6.95234 23.0189 6.92817 23.0493 6.89769C23.0798 6.86722 23.104 6.83104 23.1205 6.79122C23.1369 6.7514 23.1454 6.70872 23.1454 6.66562V6.37068C23.145 6.00731 23.0005 5.65892 22.7436 5.40195C22.4867 5.14499 22.1383 5.00045 21.7749 5.00006ZM1.5105 1.51068H8.33756V2.18249H1.5105V1.51068ZM6.43256 2.83874L6.88631 5.00006H6.22481L5.77012 2.83874H6.43256ZM9.83044 22.4887C9.3888 22.4887 8.95707 22.3578 8.58986 22.1124C8.22265 21.867 7.93645 21.5183 7.76745 21.1103C7.59845 20.7022 7.55424 20.2533 7.64042 19.8201C7.72659 19.387 7.93928 18.9891 8.25158 18.6768C8.56388 18.3645 8.96177 18.1519 9.39493 18.0658C9.82809 17.9796 10.2771 18.0239 10.6851 18.1929C11.0931 18.3619 11.4418 18.6482 11.6871 19.0154C11.9325 19.3826 12.0634 19.8144 12.0634 20.256C12.0628 20.8481 11.8274 21.4158 11.4088 21.8344C10.9902 22.2531 10.4225 22.4887 9.83044 22.4893V22.4887ZM20.4373 20.2566C20.4373 20.6982 20.3063 21.13 20.061 21.4972C19.8156 21.8645 19.4668 22.1507 19.0588 22.3197C18.6507 22.4887 18.2017 22.5329 17.7685 22.4468C17.3353 22.3606 16.9374 22.1479 16.6251 21.8356C16.3128 21.5233 16.1001 21.1254 16.014 20.6922C15.9278 20.259 15.972 19.81 16.141 19.402C16.3101 18.9939 16.5963 18.6452 16.9635 18.3998C17.3308 18.1544 17.7625 18.0234 18.2042 18.0234C18.7963 18.0241 19.3639 18.2596 19.7825 18.6782C20.2012 19.0969 20.4367 19.6645 20.4373 20.2566ZM16.6054 17.8517C16.4188 17.977 16.2474 18.1236 16.0946 18.2884L15.2966 17.3437C15.2658 17.3073 15.2274 17.2779 15.184 17.2578C15.1407 17.2377 15.0935 17.2273 15.0458 17.2273H12.9883C12.9406 17.2273 12.8934 17.2377 12.8501 17.2578C12.8068 17.278 12.7684 17.3073 12.7376 17.3437L11.9396 18.2889C11.7867 18.1243 11.6153 17.9778 11.4289 17.8524L12.5239 16.5555H15.5104L16.6054 17.8517ZM19.5219 15.8985H8.51231L6.64237 6.99374H21.3919L19.5219 15.8985ZM6.50456 6.33599L6.36169 5.65574H21.7742C21.9575 5.6562 22.1337 5.72704 22.2662 5.85363C22.3988 5.98022 22.4777 6.15289 22.4867 6.33599H6.50456Z" fill="black"/>
<path d="M18.2038 21.6068C18.4708 21.6068 18.7318 21.5276 18.9538 21.3793C19.1758 21.2309 19.3488 21.0201 19.451 20.7734C19.5532 20.5267 19.5799 20.2553 19.5278 19.9934C19.4757 19.7315 19.3472 19.491 19.1584 19.3022C18.9696 19.1134 18.729 18.9848 18.4671 18.9327C18.2053 18.8806 17.9338 18.9074 17.6871 19.0095C17.4405 19.1117 17.2296 19.2847 17.0813 19.5068C16.9329 19.7288 16.8538 19.9898 16.8538 20.2568C16.8543 20.6147 16.9966 20.9577 17.2497 21.2108C17.5028 21.4639 17.8459 21.6063 18.2038 21.6068ZM18.2038 19.563C18.341 19.563 18.4751 19.6037 18.5892 19.6799C18.7033 19.7562 18.7922 19.8645 18.8447 19.9913C18.8972 20.118 18.9109 20.2575 18.8842 20.3921C18.8574 20.5267 18.7913 20.6503 18.6943 20.7473C18.5973 20.8443 18.4737 20.9104 18.3391 20.9372C18.2045 20.964 18.065 20.9502 17.9383 20.8977C17.8115 20.8452 17.7032 20.7563 17.6269 20.6422C17.5507 20.5281 17.51 20.394 17.51 20.2568C17.5102 20.0728 17.5833 19.8964 17.7134 19.7662C17.8434 19.6361 18.0198 19.5628 18.2038 19.5625V19.563Z" fill="black"/>
<path d="M9.83047 18.9062C9.56346 18.9062 9.30246 18.9854 9.08045 19.1337C8.85844 19.282 8.68541 19.4929 8.58323 19.7396C8.48105 19.9862 8.45432 20.2577 8.50641 20.5196C8.5585 20.7814 8.68707 21.022 8.87588 21.2108C9.06468 21.3996 9.30522 21.5282 9.5671 21.5802C9.82897 21.6323 10.1004 21.6056 10.3471 21.5034C10.5938 21.4012 10.8046 21.2282 10.953 21.0062C11.1013 20.7842 11.1805 20.5232 11.1805 20.2562C11.18 19.8983 11.0376 19.5552 10.7845 19.3021C10.5314 19.0491 10.1884 18.9067 9.83047 18.9062ZM9.83047 20.9499C9.69326 20.9499 9.55913 20.9092 9.44504 20.833C9.33096 20.7568 9.24204 20.6484 9.18953 20.5217C9.13702 20.3949 9.12328 20.2554 9.15005 20.1208C9.17682 19.9863 9.24289 19.8627 9.33991 19.7656C9.43694 19.6686 9.56055 19.6025 9.69513 19.5758C9.8297 19.549 9.96919 19.5627 10.096 19.6152C10.2227 19.6678 10.3311 19.7567 10.4073 19.8708C10.4835 19.9848 10.5242 20.119 10.5242 20.2562C10.5243 20.3473 10.5064 20.4376 10.4716 20.5218C10.4367 20.6061 10.3857 20.6826 10.3212 20.7471C10.2568 20.8116 10.1803 20.8627 10.0961 20.8976C10.0119 20.9325 9.92162 20.9505 9.83047 20.9505V20.9499Z" fill="black"/>
<path d="M8.90625 9.64987H19.1299C19.2169 9.64987 19.3004 9.6153 19.3619 9.55377C19.4234 9.49223 19.458 9.40877 19.458 9.32175C19.458 9.23472 19.4234 9.15126 19.3619 9.08973C19.3004 9.02819 19.2169 8.99362 19.1299 8.99362H8.90625C8.81923 8.99362 8.73577 9.02819 8.67423 9.08973C8.61269 9.15126 8.57812 9.23472 8.57812 9.32175C8.57812 9.40877 8.61269 9.49223 8.67423 9.55377C8.73577 9.6153 8.81923 9.64987 8.90625 9.64987Z" fill="black"/>
<path d="M18.7507 11.1174H9.28345C9.19642 11.1174 9.11296 11.152 9.05143 11.2135C8.98989 11.2751 8.95532 11.3585 8.95532 11.4456C8.95532 11.5326 8.98989 11.616 9.05143 11.6776C9.11296 11.7391 9.19642 11.7737 9.28345 11.7737H18.7507C18.8377 11.7737 18.9212 11.7391 18.9827 11.6776C19.0443 11.616 19.0788 11.5326 19.0788 11.4456C19.0788 11.3585 19.0443 11.2751 18.9827 11.2135C18.9212 11.152 18.8377 11.1174 18.7507 11.1174Z" fill="black"/>
<path d="M18.3695 13.2414H9.66504C9.57801 13.2414 9.49455 13.276 9.43302 13.3375C9.37148 13.3991 9.33691 13.4825 9.33691 13.5696C9.33691 13.6566 9.37148 13.74 9.43302 13.8016C9.49455 13.8631 9.57801 13.8977 9.66504 13.8977H18.3695C18.4566 13.8977 18.54 13.8631 18.6016 13.8016C18.6631 13.74 18.6977 13.6566 18.6977 13.5696C18.6977 13.4825 18.6631 13.3991 18.6016 13.3375C18.54 13.276 18.4566 13.2414 18.3695 13.2414Z" fill="black"/>
</svg>
