<svg width="18" height="18" viewBox="0 0 18 18" fill="none" xmlns="http://www.w3.org/2000/svg">
<path d="M16.3926 0.966675H1.60691C1.25133 0.966675 0.96405 1.25395 0.96405 1.60953V16.3953C0.96405 16.7508 1.25133 17.0381 1.60691 17.0381H16.3926C16.7482 17.0381 17.0355 16.7508 17.0355 16.3953V1.60953C17.0355 1.25395 16.7482 0.966675 16.3926 0.966675ZM15.5891 10.2881H9.3212V7.71668H15.5891V10.2881ZM15.5891 15.5917H2.41048V2.4131H15.5891V6.43096H8.67834C8.32276 6.43096 8.03548 6.71824 8.03548 7.07382V10.931C8.03548 11.2865 8.32276 11.5738 8.67834 11.5738H15.5891V15.5917ZM10.3658 9.00239C10.3658 9.21551 10.4505 9.4199 10.6012 9.5706C10.7519 9.7213 10.9563 9.80596 11.1694 9.80596C11.3825 9.80596 11.5869 9.7213 11.7376 9.5706C11.8883 9.4199 11.973 9.21551 11.973 9.00239C11.973 8.78927 11.8883 8.58488 11.7376 8.43418C11.5869 8.28348 11.3825 8.19882 11.1694 8.19882C10.9563 8.19882 10.7519 8.28348 10.6012 8.43418C10.4505 8.58488 10.3658 8.78927 10.3658 9.00239Z" fill="black"/>
</svg>
