<svg width="20" height="24" viewBox="0 0 20 24" fill="none" xmlns="http://www.w3.org/2000/svg">
<path d="M17.7216 20.9983H16.1245C16.0375 20.9983 15.954 21.0329 15.8925 21.0944C15.831 21.1559 15.7964 21.2394 15.7964 21.3264C15.7964 21.4134 15.831 21.4969 15.8925 21.5584C15.954 21.62 16.0375 21.6545 16.1245 21.6545H17.7216C17.8087 21.6545 17.8921 21.62 17.9537 21.5584C18.0152 21.4969 18.0498 21.4134 18.0498 21.3264C18.0498 21.2394 18.0152 21.1559 17.9537 21.0944C17.8921 21.0329 17.8087 20.9983 17.7216 20.9983Z" fill="black"/>
<path d="M14.9467 20.9983H14.3687C14.2816 20.9983 14.1982 21.0329 14.1366 21.0944C14.0751 21.1559 14.0405 21.2394 14.0405 21.3264C14.0405 21.4134 14.0751 21.4969 14.1366 21.5584C14.1982 21.62 14.2816 21.6545 14.3687 21.6545H14.9471C15.0341 21.6545 15.1176 21.62 15.1791 21.5584C15.2406 21.4969 15.2752 21.4134 15.2752 21.3264C15.2752 21.2394 15.2406 21.1559 15.1791 21.0944C15.1176 21.0329 15.0341 20.9983 14.9471 20.9983H14.9467Z" fill="black"/>
<path d="M7.7254 9.69994C8.89798 9.6986 10.0221 9.23221 10.8513 8.40307C11.6804 7.57393 12.1468 6.44977 12.1481 5.27719C12.1481 5.27344 12.1481 5.26969 12.1481 5.26594V5.26407C12.1405 4.09614 11.6713 2.97865 10.8427 2.15547C10.0142 1.3323 8.89363 0.8703 7.72568 0.8703C6.55774 0.8703 5.43721 1.3323 4.60866 2.15547C3.78012 2.97865 3.31083 4.09614 3.30322 5.26407V5.26594V5.27719C3.30461 6.44965 3.77095 7.57371 4.59995 8.40282C5.42895 9.23193 6.55294 9.6984 7.7254 9.69994ZM7.7254 9.04369C6.83308 9.04228 5.97021 8.72431 5.29035 8.14635C4.61049 7.5684 4.15776 6.76796 4.01272 5.8875L5.71897 6.91013C5.76241 6.93616 5.81128 6.95178 5.86176 6.95578C5.91225 6.95978 5.96297 6.95205 6.00997 6.93319C6.55839 6.71763 7.13738 6.58994 7.72559 6.55482C8.31378 6.59051 8.89275 6.71819 9.4414 6.93319C9.48833 6.95209 9.539 6.95984 9.58942 6.95584C9.63985 6.95184 9.68867 6.93619 9.73202 6.91013L11.4383 5.8875C11.2932 6.76799 10.8405 7.56845 10.1606 8.14641C9.48068 8.72437 8.61776 9.04233 7.7254 9.04369ZM4.35041 5.32425C5.4286 4.91263 6.57137 4.69588 7.7254 4.68413C8.87944 4.69588 10.0222 4.91262 11.1004 5.32425L9.53121 6.2655C8.95244 6.04963 8.34345 5.92569 7.72634 5.89819C7.10923 5.92565 6.50023 6.04959 5.92147 6.2655L4.35041 5.32425ZM7.7254 1.51069C8.63295 1.51214 9.5095 1.84103 10.194 2.43693C10.8785 3.03284 11.325 3.85574 11.4514 4.75444C10.2651 4.28371 9.00167 4.03728 7.7254 4.02769C6.44931 4.03741 5.18611 4.2839 3.99997 4.75463C4.12634 3.85599 4.57272 3.03312 5.2571 2.43719C5.94149 1.84126 6.81792 1.51228 7.7254 1.51069Z" fill="black"/>
<path d="M19.3299 13.3907H15.1087V12.6902C15.1078 12.025 14.8431 11.3872 14.3726 10.9169C13.9021 10.4466 13.2643 10.182 12.599 10.1813H2.85148C2.18623 10.182 1.54843 10.4466 1.07795 10.9169C0.607479 11.3872 0.34274 12.025 0.341797 12.6902V22.8175C0.341797 22.9045 0.376367 22.9879 0.437903 23.0495C0.499438 23.111 0.582898 23.1456 0.669922 23.1456H19.3299C19.4169 23.1456 19.5004 23.111 19.5619 23.0495C19.6235 22.9879 19.658 22.9045 19.658 22.8175V13.7188C19.658 13.6318 19.6235 13.5484 19.5619 13.4868C19.5004 13.4253 19.4169 13.3907 19.3299 13.3907ZM19.0018 15.7H16.2163V14.047H19.0018V15.7ZM13.3447 15.7H10.5592V14.047H13.3447V15.7ZM14.001 14.047H15.56V17.4501L15.0665 16.9339C15.0063 16.871 14.9236 16.8345 14.8365 16.8325C14.7495 16.8315 14.6656 16.8642 14.6023 16.9238L14.001 17.4996V14.047ZM10.44 10.8375L9.03092 12.5644L8.23742 10.8375H10.44ZM7.21348 10.8375L6.41961 12.5644L5.01055 10.8375H7.21348ZM0.998047 12.6902C0.998989 12.199 1.19459 11.7282 1.54199 11.3809C1.8894 11.0337 2.36028 10.8383 2.85148 10.8375H4.16398L6.24411 13.3875C6.27933 13.4307 6.32497 13.4642 6.37671 13.4848C6.42845 13.5055 6.4846 13.5126 6.53986 13.5055C6.59512 13.4985 6.64767 13.4775 6.69257 13.4445C6.73747 13.4115 6.77323 13.3676 6.79648 13.317L7.72573 11.2956L8.65461 13.317C8.67795 13.3676 8.71375 13.4114 8.75864 13.4444C8.80354 13.4773 8.85606 13.4983 8.9113 13.5055C8.92511 13.5072 8.93901 13.5081 8.95292 13.5081C9.00159 13.5081 9.04964 13.4973 9.09362 13.4764C9.13759 13.4556 9.17638 13.4252 9.20717 13.3875L11.2871 10.8375H12.5996C13.0909 10.8383 13.5619 11.0338 13.9094 11.3812C14.2568 11.7286 14.4523 12.1996 14.453 12.691V13.3915H10.2311C10.1441 13.3915 10.0606 13.426 9.99909 13.4876C9.93755 13.5491 9.90298 13.6326 9.90298 13.7196V22.4901H3.95867V13.7188C3.95867 13.6318 3.9241 13.5484 3.86257 13.4868C3.80103 13.4253 3.71757 13.3907 3.63055 13.3907C3.54352 13.3907 3.46006 13.4253 3.39853 13.4868C3.33699 13.5484 3.30242 13.6318 3.30242 13.7188V22.4893H0.998047V12.6902ZM10.5592 22.4893V16.3562H13.3447V18.2687C13.3448 18.333 13.3638 18.3958 13.3993 18.4494C13.4347 18.503 13.4852 18.545 13.5443 18.5702C13.6034 18.5953 13.6686 18.6026 13.7319 18.5911C13.7951 18.5795 13.8535 18.5496 13.8999 18.5051L14.8187 17.625L15.6506 18.4952C15.6959 18.5426 15.7543 18.5753 15.8183 18.5892C15.8824 18.603 15.9491 18.5974 16.0099 18.573C16.0707 18.5486 16.1229 18.5066 16.1596 18.4523C16.1963 18.3981 16.2159 18.334 16.2159 18.2685V16.356H19.0018V22.4892L10.5592 22.4893Z" fill="black"/>
</svg>
