<svg width="24" height="20" viewBox="0 0 24 20" fill="none" xmlns="http://www.w3.org/2000/svg">
<path d="M23.1429 0.566544H0.857143C0.383036 0.566544 0 0.949579 0 1.42369V18.5665C0 19.0407 0.383036 19.4237 0.857143 19.4237H23.1429C23.617 19.4237 24 19.0407 24 18.5665V1.42369C24 0.949579 23.617 0.566544 23.1429 0.566544ZM22.0714 3.5344V17.4951H1.92857V3.5344L1.18929 2.95851L2.24196 1.60583L3.38839 2.49779H20.6143L21.7607 1.60583L22.8134 2.95851L22.0714 3.5344ZM20.6143 2.49512L12 9.19154L3.38571 2.49512L2.23929 1.60315L1.18661 2.95583L1.92589 3.53172L11.0759 10.646C11.339 10.8504 11.6628 10.9614 11.996 10.9614C12.3292 10.9614 12.6529 10.8504 12.9161 10.646L22.0714 3.5344L22.8107 2.95851L21.758 1.60583L20.6143 2.49512Z" fill="#1A8B32"/>
</svg>
