<svg width="24" height="24" viewBox="0 0 24 24" fill="none" xmlns="http://www.w3.org/2000/svg">
<path d="M16.1394 7.6378H13.0502V4.26937C13.0504 4.02652 12.9711 3.79028 12.8244 3.59678C12.6776 3.40327 12.4716 3.26315 12.2377 3.19785C12.0038 3.13255 11.7549 3.14566 11.5292 3.23518C11.3034 3.3247 11.1132 3.4857 10.9877 3.69355C10.982 3.70279 10.9769 3.7123 10.9723 3.72205L9.26096 7.3063C9.099 7.64967 9.0066 8.02169 8.98909 8.40093H6.68115C6.59413 8.40093 6.51067 8.4355 6.44913 8.49704C6.3876 8.55857 6.35303 8.64203 6.35303 8.72906V13.8137C6.35303 13.9007 6.3876 13.9842 6.44913 14.0457C6.51067 14.1072 6.59413 14.1418 6.68115 14.1418H9.17959C9.31107 14.3732 9.50145 14.5656 9.73138 14.6996C9.96131 14.8335 10.2226 14.9043 10.4887 14.9046H15.2261C15.5705 14.9031 15.9041 14.7843 16.172 14.5679C16.4399 14.3514 16.6261 14.0502 16.6998 13.7137L17.6131 9.46199C17.6604 9.24217 17.6578 9.01456 17.6057 8.79585C17.5536 8.57713 17.4532 8.37284 17.3119 8.19794C17.1706 8.02305 16.992 7.88197 16.7891 7.78505C16.5862 7.68813 16.3642 7.63782 16.1394 7.6378ZM7.00928 13.4856V9.05718H8.9814V13.3971C8.9814 13.4269 8.98421 13.4561 8.9859 13.4856H7.00928ZM16.9715 9.32418L16.0582 13.5759C16.0166 13.7659 15.9115 13.936 15.7602 14.0582C15.6089 14.1804 15.4206 14.2475 15.2261 14.2483H10.4887C10.263 14.248 10.0467 14.1582 9.88712 13.9987C9.72754 13.8391 9.63776 13.6227 9.63746 13.3971V8.54062C9.63796 8.21143 9.71161 7.88647 9.85309 7.58924L11.5578 4.02149C11.6114 3.93948 11.69 3.87694 11.7819 3.84317C11.8739 3.8094 11.9743 3.8062 12.0682 3.83404C12.1621 3.86188 12.2445 3.91928 12.3032 3.99771C12.3619 4.07614 12.3937 4.17141 12.3939 4.26937V7.96593C12.3939 8.05295 12.4285 8.13641 12.49 8.19795C12.5515 8.25948 12.635 8.29405 12.722 8.29405H16.1394C16.2664 8.29411 16.3917 8.32255 16.5062 8.37729C16.6208 8.43204 16.7216 8.51171 16.8014 8.61046C16.8812 8.70922 16.9378 8.82456 16.9673 8.94806C16.9967 9.07155 16.9982 9.20006 16.9715 9.32418Z" fill="black"/>
<path d="M20.3659 0.854462H3.63418C2.8972 0.855256 2.19064 1.14837 1.66952 1.66949C1.1484 2.19061 0.855286 2.89717 0.854492 3.63415V15.1783C0.855286 15.9153 1.14839 16.6219 1.66951 17.1431C2.19062 17.6642 2.89719 17.9574 3.63418 17.9582H6.84043V22.8175C6.84043 22.8856 6.86166 22.9521 6.90116 23.0076C6.94067 23.0632 6.99649 23.105 7.06087 23.1274C7.12525 23.1498 7.195 23.1515 7.26044 23.1324C7.32587 23.1134 7.38373 23.0744 7.42599 23.0209L11.4241 17.9584H20.3657C21.1027 17.9576 21.8093 17.6644 22.3304 17.1432C22.8515 16.6221 23.1446 15.9155 23.1454 15.1785V3.63415C23.1446 2.89721 22.8515 2.19067 22.3305 1.66956C21.8094 1.14844 21.1029 0.855305 20.3659 0.854462ZM22.4894 15.1783C22.4888 15.7413 22.2649 16.2811 21.8668 16.6792C21.4687 17.0774 20.9289 17.3013 20.3659 17.302H11.2654C11.2159 17.3019 11.1669 17.3132 11.1223 17.3348C11.0777 17.3563 11.0385 17.3878 11.0078 17.4266L7.49687 21.8725V17.6301C7.49682 17.5431 7.46223 17.4596 7.40071 17.3981C7.33918 17.3366 7.25575 17.302 7.16874 17.302H3.63418C3.07117 17.3013 2.53142 17.0774 2.13333 16.6792C1.73524 16.2811 1.51134 15.7413 1.51074 15.1783V3.63415C1.51134 3.07116 1.73525 2.5314 2.13334 2.13331C2.53143 1.73522 3.07119 1.51131 3.63418 1.51071H20.3659C20.9289 1.51131 21.4687 1.73522 21.8668 2.13331C22.2649 2.5314 22.4888 3.07116 22.4894 3.63415V15.1783Z" fill="black"/>
</svg>
