<svg width="132" height="57" viewBox="0 0 132 57" fill="none" xmlns="http://www.w3.org/2000/svg">
<g clip-path="url(#clip0)">
<rect x="2" width="25" height="25.0005" rx="5" fill="#42A6DF"/>
<g clip-path="url(#clip1)">
<path d="M13.9727 12.8176C13.3172 14.6504 12.8875 17.5377 12.8452 20.3949H16.1579C16.1156 17.5377 15.6859 14.6503 15.0304 12.8176H13.9727Z" fill="white"/>
<path d="M11.6235 8.3118L12.3306 9.4634H16.6714L17.3785 8.3118C17.8101 7.60896 17.7394 6.69803 17.2128 6.06965V4.60498H16.2879V7.15317C15.7912 7.48209 15.1673 7.6618 14.5066 7.6618C13.87 7.6618 13.23 7.48751 12.714 7.14593V4.60498H11.7891V6.06968C11.2626 6.69803 11.1919 7.60896 11.6235 8.3118Z" fill="white"/>
<path d="M16.7526 12.8176H16.0071C16.6353 14.7501 17.0421 17.5955 17.0829 20.3949H20.1041C19.9991 17.3325 18.8461 14.7242 16.7526 12.8176Z" fill="white"/>
<path d="M12.5347 10.3884H16.468V11.8927H12.5347V10.3884Z" fill="white"/>
<path d="M12.2503 12.8176C10.1569 14.7242 9.00384 17.3325 8.89893 20.3949H11.9201C11.9609 17.5955 12.3677 14.7501 12.9959 12.8176H12.2503Z" fill="white"/>
</g>
<path d="M75.2786 7.30959H78.9906C81.1157 7.30959 82.4475 8.59919 82.4475 10.6052C82.4475 12.6543 81.1865 13.9009 79.0331 13.9009H75.2786V7.30959ZM75.2786 17.0389H78.778L82.5891 24.6045H87.4345L83.1275 16.3941C85.4793 15.4627 86.8394 13.1701 86.8394 10.5193C86.8394 6.43553 84.1476 3.92798 79.4439 3.92798H71V24.6045H75.2786V17.0389Z" fill="#282828"/>
<path d="M96.1617 11.6799C98.0744 11.6799 99.4061 13.0268 99.477 15.0902H92.7473C92.889 13.0698 94.2774 11.6799 96.1617 11.6799ZM99.5336 19.79C99.1369 21.008 97.9044 21.7531 96.3459 21.7531C94.1641 21.7531 92.7048 20.2199 92.7048 17.9416V17.6837H103.472V16.3941C103.472 11.5939 100.61 8.5562 96.1192 8.5562C91.5431 8.5562 88.6246 11.7659 88.6246 16.781C88.6246 21.7961 91.5289 24.8768 96.2751 24.8768C100.072 24.8768 102.891 22.8421 103.345 19.79H99.5336Z" fill="#282828"/>
<path d="M105.697 24.6045H109.834V15.606C109.834 13.514 111.165 12.0811 113.149 12.0811C115.104 12.0811 116.209 13.2704 116.209 15.3624V24.6045H120.346V14.4883C120.346 10.8058 118.249 8.59919 114.792 8.59919C112.398 8.59919 110.669 9.65952 109.777 11.6512H109.692V8.82845H105.697V24.6045Z" fill="#282828"/>
<path d="M124.2 5.31788V8.82845H122.089V11.9951H124.2V20.3489C124.2 23.4296 125.616 24.6618 129.229 24.6618C130.065 24.6618 130.802 24.5759 131.227 24.4899V21.3949C130.972 21.4378 130.561 21.4665 130.192 21.4665C128.932 21.4665 128.336 20.879 128.336 19.6611V11.9951H131.227V8.82845H128.336V5.31788H124.2Z" fill="#282828"/>
<path d="M80.3089 56.2999C85.1337 56.2999 88.5002 53.5194 88.9636 49.1307H84.9565C84.5204 51.4613 82.7622 52.8925 80.3225 52.8925C77.1741 52.8925 75.1979 50.3028 75.1979 46.1049C75.1979 41.9615 77.2014 39.3582 80.3089 39.3582C82.7077 39.3582 84.5613 40.9392 84.9429 43.3517H88.9499C88.6365 38.9493 85.0383 35.9508 80.3089 35.9508C74.6118 35.9508 71 39.7807 71 46.1185C71 52.4699 74.5845 56.2999 80.3089 56.2999Z" fill="#282828"/>
<path d="M91.3351 55.9591H95.3149V35.3511H91.3351V55.9591Z" fill="#282828"/>
<path d="M112.147 40.9529H108.167V49.4987C108.167 51.5295 106.873 52.8652 105.019 52.8652C103.179 52.8652 102.034 51.7748 102.034 49.744V40.9529H98.0544V50.5754C98.0544 54.0646 100.262 56.1772 103.506 56.1772C105.782 56.1772 107.459 55.1277 108.222 53.2468H108.304V55.9591H112.147V40.9529Z" fill="#282828"/>
<path d="M123.678 56.1363C127.453 56.1363 129.784 53.2196 129.784 48.4492C129.784 43.6788 127.453 40.7757 123.664 40.7757C121.524 40.7757 119.861 41.7843 119.03 43.5152H118.948V35.3511H114.968V55.9591H118.88V53.3968H118.962C119.793 55.1277 121.483 56.1363 123.678 56.1363ZM122.328 43.9923C124.373 43.9923 125.708 45.7369 125.708 48.4492C125.708 51.1751 124.386 52.9197 122.328 52.9197C120.284 52.9197 118.935 51.1479 118.921 48.4628C118.935 45.7778 120.284 43.9923 122.328 43.9923Z" fill="#282828"/>
<rect x="2" y="32" width="25" height="25.0005" rx="5" fill="#FFAD05"/>
<g clip-path="url(#clip2)">
<path d="M8.89616 44.2197L7.37018 45.7457L8.02416 46.3998L7.1521 47.2718L11.7301 51.8499L12.6021 50.9778L13.2561 51.6318L14.7821 50.1058L8.89616 44.2197Z" fill="white"/>
<path d="M17.2737 37.1499L16.4017 38.022L15.7477 37.368L14.2217 38.894L20.1076 44.78L21.6336 43.254L20.9796 42.6L21.8517 41.728L17.2737 37.1499Z" fill="white"/>
<path d="M19.125 37.6963L20.2148 36.6064L22.3945 38.7861L21.3047 39.876L19.125 37.6963Z" fill="white"/>
<path d="M6.60571 50.2134L7.69554 49.1235L9.87519 51.3032L8.78536 52.3931L6.60571 50.2134Z" fill="white"/>
<path d="M11.4019 45.4187L15.4189 41.4016L17.5985 43.5813L13.5815 47.5984L11.4019 45.4187Z" fill="white"/>
</g>
<rect x="34" width="25" height="25.0005" rx="5" fill="#1A8B32"/>
<g clip-path="url(#clip3)">
<path d="M39.2627 18.0922C39.2627 18.6363 39.7061 19.0791 40.2495 19.0791H45.5127C46.0568 19.0791 46.4995 18.6363 46.4995 18.0922V15.7896H39.2627V18.0922Z" fill="white"/>
<path d="M54.0653 7.89465H51.6376L51.2528 7.12425C51.0843 6.78804 50.7455 6.57883 50.3699 6.57883H48.8561L47.7435 6.20841C47.1725 6.01761 46.5777 5.9209 45.9751 5.9209H39.5916C39.0482 5.9209 38.6047 6.36366 38.6047 6.90776V9.53941C38.6047 10.0835 39.0482 10.5263 39.5916 10.5263H41.1817L40.6021 14.2908L39.4817 15.1316H46.2376L44.2317 14.2717L44.4547 12.8204C44.4791 12.8257 44.5028 12.8289 44.5264 12.8289C44.6738 12.8289 44.808 12.7296 44.8448 12.5796L45.1738 11.2638C45.2179 11.0875 45.1106 10.9091 44.9343 10.8651C44.8718 10.8493 44.81 10.8578 44.7534 10.8769L44.808 10.5263H45.9745C46.5771 10.5263 47.1719 10.4296 47.7429 10.2388L48.8554 9.86834H50.3692C50.7455 9.86834 51.0837 9.65913 51.2521 9.32295L51.637 8.55255H54.0653C54.2468 8.55255 54.3942 8.40517 54.3942 8.22358C54.3942 8.042 54.2468 7.89465 54.0653 7.89465ZM42.2231 9.21044H40.2495C40.0679 9.21044 39.9205 9.06306 39.9205 8.88148C39.9205 8.6999 40.0679 8.55255 40.2495 8.55255H42.2231C42.4047 8.55255 42.5521 8.69993 42.5521 8.88151C42.5521 9.06309 42.4047 9.21044 42.2231 9.21044ZM42.2231 7.89465H40.2495C40.0679 7.89465 39.9205 7.74727 39.9205 7.56569C39.9205 7.3841 40.0679 7.23672 40.2495 7.23672H42.2231C42.4047 7.23672 42.5521 7.3841 42.5521 7.56569C42.5521 7.74727 42.4047 7.89465 42.2231 7.89465ZM49.131 8.88151C49.131 9.06309 48.9837 9.21047 48.8021 9.21047C48.6205 9.21047 48.4732 9.06309 48.4732 8.88151V7.56569C48.4732 7.3841 48.6205 7.23672 48.8021 7.23672C48.9837 7.23672 49.131 7.3841 49.131 7.56569V8.88151Z" fill="white"/>
</g>
<rect x="34" y="32" width="25" height="25.0005" rx="5" fill="#FD7C60"/>
<g clip-path="url(#clip4)">
<path d="M52.636 37.6021C51.4232 36.9021 49.7513 36.8726 48.2736 37.5253C46.9062 38.1296 45.9206 39.461 45.338 40.4616C45.0757 40.3976 44.7951 40.5223 44.6733 40.7761C44.5568 41.0188 44.6248 41.3003 44.8187 41.4685C44.7656 41.5868 44.7332 41.6663 44.7209 41.6972L41.891 47.9131C41.6057 47.7816 41.2658 47.8988 41.125 48.1823C40.9816 48.4712 41.0993 48.8216 41.3881 48.9653L41.4074 48.975L40.7708 50.3741H39.1888C38.8664 50.3741 38.6047 50.6358 38.6047 50.9582C38.6047 51.2807 38.8664 51.5423 39.1888 51.5423H42.1092C42.4316 51.5423 42.6933 51.2807 42.6933 50.9582C42.6933 50.6358 42.4316 50.3741 42.1092 50.3741H42.0543L42.4594 49.4843C42.5128 49.4998 42.5668 49.5103 42.6209 49.5103C42.8355 49.5103 43.0423 49.3914 43.1445 49.1861C43.2783 48.9169 43.183 48.5965 42.936 48.4376L45.8684 41.9966C45.9475 42.0331 46.0301 42.0512 46.1122 42.0512C46.3298 42.0512 46.5386 41.9291 46.639 41.7197C46.7728 41.4414 46.6641 41.1114 46.3995 40.9613C46.8992 40.1193 47.6991 39.0565 48.7461 38.5939C49.8716 38.0966 51.1694 38.1042 52.0523 38.6138C52.7015 38.9885 53.0744 39.5846 53.1614 40.3859C53.3244 41.8867 53.1862 42.8931 52.752 43.3776C52.712 43.4223 52.6679 43.4606 52.6229 43.4968V44.8042C52.9827 44.6827 53.3282 44.4845 53.6214 44.1577C54.2966 43.4056 54.5258 42.1306 54.3229 40.26C54.1973 39.1009 53.598 38.157 52.636 37.6021Z" fill="white"/>
<path d="M50.9727 47.4537C51.3538 47.4537 51.7142 47.5405 52.0386 47.6918V44.9404V43.7553V43.0731C52.0386 42.7504 52.0693 42.7811 51.7466 42.7811H50.6027C50.28 42.7811 47.0252 43.0489 46.1654 47.299L45.6138 50.8122C45.6138 51.1349 45.8752 51.5423 46.1978 51.5423H48.9696C48.6361 51.1128 48.4355 50.5754 48.4355 49.991C48.4355 48.5918 49.5738 47.4537 50.9727 47.4537Z" fill="white"/>
<path d="M52.3302 48.5904C52.2405 48.5036 52.143 48.4254 52.0381 48.3567C51.7312 48.1558 51.3653 48.0378 50.9722 48.0378C49.8951 48.0378 49.019 48.914 49.019 49.991C49.019 50.6236 49.3228 51.1855 49.7906 51.5424C49.9536 51.6668 50.1361 51.7658 50.3332 51.8344C50.5339 51.9042 50.7483 51.9439 50.9722 51.9439C51.1962 51.9439 51.4106 51.9042 51.6112 51.8344C51.818 51.7626 52.0093 51.6571 52.1781 51.5243C52.3369 51.3993 52.4769 51.2512 52.5905 51.0836C52.8019 50.7714 52.9257 50.3952 52.9257 49.9907C52.9257 49.6082 52.8136 49.2521 52.6229 48.9508C52.5389 48.8193 52.4414 48.6982 52.3302 48.5904ZM50.9722 49.0112C51.513 49.0112 51.9517 49.4499 51.9517 49.9907C51.9517 50.5316 51.513 50.9703 50.9722 50.9703C50.4313 50.9703 49.9927 50.5316 49.9927 49.9907C49.9927 49.4499 50.431 49.0112 50.9722 49.0112Z" fill="white"/>
</g>
</g>
<defs>
<clipPath id="clip0">
<rect width="132" height="57" fill="white"/>
</clipPath>
<clipPath id="clip1">
<rect width="15.7895" height="15.7898" fill="white" transform="translate(6.60669 4.60498)"/>
</clipPath>
<clipPath id="clip2">
<rect width="15.7895" height="15.7898" fill="white" transform="translate(6.60669 36.605)"/>
</clipPath>
<clipPath id="clip3">
<rect width="15.7895" height="15.7898" fill="white" transform="translate(38.6047 4.60498)"/>
</clipPath>
<clipPath id="clip4">
<rect width="15.7895" height="15.7898" fill="white" transform="translate(38.6047 36.605)"/>
</clipPath>
</defs>
</svg>
