<svg width="24" height="24" viewBox="0 0 24 24" fill="none" xmlns="http://www.w3.org/2000/svg">
<path d="M11.6424 5.71741H6.05249C6.00939 5.71738 5.96671 5.72585 5.92689 5.74233C5.88707 5.75882 5.85089 5.78298 5.82042 5.81346C5.78994 5.84393 5.76577 5.88011 5.74929 5.91994C5.73281 5.95976 5.72434 6.00244 5.72437 6.04553V11.6357C5.72437 11.7227 5.75894 11.8061 5.82047 11.8677C5.88201 11.9292 5.96547 11.9638 6.05249 11.9638H11.6424C11.7295 11.9638 11.8129 11.9292 11.8744 11.8677C11.936 11.8061 11.9706 11.7227 11.9706 11.6357V6.04553C11.9706 6.00244 11.9621 5.95976 11.9456 5.91994C11.9291 5.88011 11.905 5.84393 11.8745 5.81346C11.844 5.78298 11.8078 5.75882 11.768 5.74233C11.7282 5.72585 11.6855 5.71738 11.6424 5.71741ZM11.3143 7.4321H9.92924V6.37366H11.3143V7.4321ZM9.27299 6.37366V8.40203H8.42174V6.37366H9.27299ZM7.76549 6.37366V7.4321H6.38062V6.37366H7.76549ZM6.38062 11.3075V8.08835H7.76549V8.73016C7.76549 8.81718 7.80006 8.90064 7.8616 8.96218C7.92313 9.02371 8.00659 9.05828 8.09362 9.05828H9.60112C9.68814 9.05828 9.7716 9.02371 9.83314 8.96218C9.89467 8.90064 9.92924 8.81718 9.92924 8.73016V8.08835H11.3143V11.3075H6.38062Z" fill="black"/>
<path d="M13.0549 4.6331C12.2223 3.80119 11.1616 3.23482 10.0071 3.00558C8.85265 2.77635 7.6561 2.89454 6.56876 3.34522C5.48142 3.7959 4.55211 4.55883 3.89829 5.53758C3.24447 6.51632 2.89551 7.66694 2.89551 8.84398C2.89551 10.021 3.24447 11.1716 3.89829 12.1504C4.55211 13.1291 5.48142 13.8921 6.56876 14.3427C7.6561 14.7934 8.85265 14.9116 10.0071 14.6824C11.1616 14.4531 12.2223 13.8868 13.0549 13.0549C14.1699 11.9371 14.7961 10.4228 14.7961 8.84398C14.7961 7.2652 14.1699 5.75086 13.0549 4.6331ZM12.5909 12.5908C11.724 13.4575 10.5835 13.9968 9.36363 14.1169C8.14374 14.237 6.91995 13.9304 5.90078 13.2493C4.8816 12.5682 4.13011 11.5549 3.77433 10.3818C3.41855 9.20881 3.4805 7.94871 3.94963 6.81625C4.41876 5.68378 5.26603 4.74901 6.3471 4.1712C7.42816 3.59339 8.67612 3.4083 9.87836 3.64745C11.0806 3.88661 12.1627 4.53522 12.9403 5.48277C13.718 6.43032 14.143 7.61819 14.143 8.84398C14.1449 9.54012 14.0087 10.2297 13.7423 10.8729C13.4758 11.516 13.0845 12.0999 12.5909 12.5908Z" fill="black"/>
<path d="M22.5353 19.5894L15.7703 12.825C16.7332 11.1481 17.0543 9.1784 16.6738 7.28244C16.2932 5.38647 15.2369 3.69329 13.7013 2.51787C12.1658 1.34244 10.2556 0.764798 8.32601 0.892395C6.39645 1.01999 4.57892 1.84414 3.21153 3.21153C1.84414 4.57892 1.01999 6.39645 0.892395 8.32601C0.764798 10.2556 1.34244 12.1658 2.51787 13.7013C3.69329 15.2369 5.38647 16.2932 7.28244 16.6738C9.1784 17.0543 11.1481 16.7332 12.825 15.7703L19.59 22.5353C19.9806 22.9259 20.5105 23.1453 21.0629 23.1453C21.6154 23.1453 22.1452 22.9259 22.5358 22.5353C22.9265 22.1446 23.1459 21.6148 23.1459 21.0623C23.1459 20.5099 22.9265 19.9801 22.5358 19.5894H22.5353ZM3.65869 14.0293C2.63313 13.0038 1.93472 11.6971 1.65178 10.2746C1.36883 8.85215 1.51405 7.3777 2.06908 6.03775C2.62411 4.6978 3.56401 3.55252 4.76994 2.74675C5.97586 1.94097 7.39365 1.51089 8.844 1.51089C10.2944 1.51089 11.7121 1.94097 12.9181 2.74675C14.124 3.55252 15.0639 4.6978 15.6189 6.03775C16.1739 7.3777 16.3192 8.85215 16.0362 10.2746C15.7533 11.6971 15.0549 13.0038 14.0293 14.0293C12.653 15.4025 10.7882 16.1737 8.844 16.1737C6.8998 16.1737 5.03499 15.4025 3.65869 14.0293ZM22.0712 22.0714C21.8035 22.3389 21.4406 22.4891 21.0622 22.4891C20.6837 22.4891 20.3208 22.3389 20.0531 22.0714L13.3924 15.4103C14.1821 14.866 14.866 14.1821 15.4103 13.3924L22.0714 20.0533C22.3389 20.321 22.4891 20.6839 22.4891 21.0623C22.4891 21.4408 22.3389 21.8037 22.0714 22.0714H22.0712Z" fill="black"/>
<path d="M18.7816 17.6154C18.7511 17.5849 18.715 17.5608 18.6752 17.5443C18.6353 17.5278 18.5927 17.5193 18.5496 17.5193C18.5065 17.5193 18.4638 17.5278 18.424 17.5443C18.3842 17.5608 18.348 17.5849 18.3175 17.6154C18.2871 17.6459 18.2629 17.682 18.2464 17.7219C18.2299 17.7617 18.2214 17.8043 18.2214 17.8474C18.2214 17.8905 18.2299 17.9332 18.2464 17.973C18.2629 18.0128 18.2871 18.049 18.3175 18.0795L20.5353 20.2972C20.5968 20.3588 20.6803 20.3935 20.7674 20.3935C20.8545 20.3936 20.938 20.359 20.9996 20.2975C21.0613 20.236 21.0959 20.1525 21.0959 20.0654C21.096 19.9783 21.0615 19.8948 20.9999 19.8331L18.7816 17.6154Z" fill="black"/>
<path d="M17.0265 15.86C16.9649 15.7985 16.8815 15.7639 16.7945 15.7639C16.7074 15.7639 16.624 15.7985 16.5624 15.86C16.5009 15.9216 16.4663 16.005 16.4663 16.0921C16.4663 16.1791 16.5009 16.2626 16.5624 16.3241L17.2301 16.9918C17.2604 17.0231 17.2966 17.0481 17.3366 17.0653C17.3767 17.0825 17.4197 17.0915 17.4633 17.0919C17.5069 17.0923 17.5501 17.084 17.5904 17.0674C17.6307 17.0509 17.6673 17.0266 17.6981 16.9958C17.7289 16.9649 17.7533 16.9283 17.7698 16.888C17.7863 16.8476 17.7946 16.8044 17.7942 16.7609C17.7938 16.7173 17.7847 16.6742 17.7675 16.6342C17.7503 16.5942 17.7253 16.558 17.694 16.5277L17.0265 15.86Z" fill="black"/>
</svg>
