<svg width="24" height="24" viewBox="0 0 24 24" fill="none" xmlns="http://www.w3.org/2000/svg">
<path d="M21.1909 0.854401H2.80918C2.29093 0.854947 1.79407 1.06106 1.42761 1.42752C1.06115 1.79398 0.855038 2.29084 0.854492 2.80909V16.1493C0.855038 16.6676 1.06115 17.1645 1.4276 17.531C1.79405 17.8975 2.29091 18.1036 2.80918 18.1042H8.70718V21.1312H6.85093C6.76391 21.1312 6.68045 21.1658 6.61891 21.2273C6.55738 21.2889 6.5228 21.3723 6.5228 21.4593V22.817C6.5228 22.9041 6.55738 22.9875 6.61891 23.049C6.68045 23.1106 6.76391 23.1452 6.85093 23.1452H17.1494C17.2364 23.1452 17.3199 23.1106 17.3814 23.049C17.4429 22.9875 17.4775 22.9041 17.4775 22.817V21.4593C17.4775 21.3723 17.4429 21.2889 17.3814 21.2273C17.3199 21.1658 17.2364 21.1312 17.1494 21.1312H15.2931V18.1042H21.1911C21.7094 18.1036 22.2062 17.8974 22.5726 17.5309C22.939 17.1644 23.1451 16.6676 23.1456 16.1493V2.80909C23.1451 2.29084 22.939 1.79398 22.5725 1.42752C22.206 1.06106 21.7092 0.854947 21.1909 0.854401ZM16.8212 22.4893H7.17887V21.7875H16.8212V22.4893ZM14.6367 21.1312H9.36343V18.1042H14.6367V21.1312ZM22.4894 16.1493C22.489 16.4936 22.3521 16.8237 22.1087 17.0672C21.8653 17.3106 21.5352 17.4476 21.1909 17.448H2.80918C2.4649 17.4476 2.13484 17.3106 1.89142 17.0672C1.64799 16.8237 1.51109 16.4936 1.51074 16.1493V2.80909C1.51109 2.46483 1.648 2.13477 1.89143 1.89134C2.13486 1.64791 2.46492 1.511 2.80918 1.51065H21.1909C21.5352 1.511 21.8653 1.64791 22.1087 1.89134C22.3521 2.13477 22.489 2.46483 22.4894 2.80909V16.1493Z" fill="black"/>
<path d="M8.8772 6.66187V12.2518C8.8772 12.3388 8.91177 12.4223 8.9733 12.4838C9.03484 12.5454 9.1183 12.5799 9.20532 12.5799H14.7951C14.8821 12.5799 14.9656 12.5454 15.0271 12.4838C15.0886 12.4223 15.1232 12.3388 15.1232 12.2518V6.66187C15.1232 6.57484 15.0886 6.49138 15.0271 6.42985C14.9656 6.36831 14.8821 6.33374 14.7951 6.33374H9.20532C9.1183 6.33374 9.03484 6.36831 8.9733 6.42985C8.91177 6.49138 8.8772 6.57484 8.8772 6.66187ZM9.53345 11.9237V8.70468H10.9183V9.3463C10.9184 9.43331 10.953 9.51674 11.0145 9.57827C11.076 9.63979 11.1594 9.67438 11.2464 9.67443H12.7539C12.841 9.67438 12.9244 9.63979 12.9859 9.57827C13.0474 9.51674 13.082 9.43331 13.0821 9.3463V8.70468H14.4669V11.9237H9.53345ZM14.4669 8.04843H13.0821V6.98999H14.4669V8.04843ZM12.4258 6.98999V9.01874H11.5746V6.98999H12.4258ZM10.9183 6.98999V8.04843H9.53345V6.98999H10.9183Z" fill="black"/>
<path d="M7.90063 13.8843H9.11938C9.20641 13.8843 9.28987 13.8498 9.3514 13.7882C9.41294 13.7267 9.44751 13.6432 9.44751 13.5562C9.44751 13.4692 9.41294 13.3857 9.3514 13.3242C9.28987 13.2627 9.20641 13.2281 9.11938 13.2281H8.22876V12.3375C8.22876 12.2504 8.19419 12.167 8.13265 12.1054C8.07112 12.0439 7.98766 12.0093 7.90063 12.0093C7.81361 12.0093 7.73015 12.0439 7.66862 12.1054C7.60708 12.167 7.57251 12.2504 7.57251 12.3375V13.5562C7.57251 13.6432 7.60708 13.7267 7.66862 13.7882C7.73015 13.8498 7.81361 13.8843 7.90063 13.8843Z" fill="black"/>
<path d="M7.90067 6.90524C7.9877 6.90524 8.07116 6.87067 8.13269 6.80914C8.19423 6.7476 8.2288 6.66414 8.2288 6.57712V5.68555H9.12036C9.20739 5.68555 9.29085 5.65098 9.35238 5.58944C9.41392 5.52791 9.44849 5.44445 9.44849 5.35742C9.44849 5.2704 9.41392 5.18694 9.35238 5.1254C9.29085 5.06387 9.20739 5.0293 9.12036 5.0293H7.90161C7.81459 5.0293 7.73113 5.06387 7.66959 5.1254C7.60806 5.18694 7.57349 5.2704 7.57349 5.35742V6.57712C7.57354 6.66396 7.60799 6.74725 7.66931 6.80875C7.73064 6.87025 7.81383 6.90494 7.90067 6.90524Z" fill="black"/>
<path d="M14.8799 5.68555H15.7714V6.57712C15.7714 6.66414 15.806 6.7476 15.8676 6.80914C15.9291 6.87067 16.0125 6.90524 16.0996 6.90524C16.1866 6.90524 16.2701 6.87067 16.3316 6.80914C16.3931 6.7476 16.4277 6.66414 16.4277 6.57712V5.35742C16.4277 5.2704 16.3931 5.18694 16.3316 5.1254C16.2701 5.06387 16.1866 5.0293 16.0996 5.0293H14.8799C14.7929 5.0293 14.7094 5.06387 14.6479 5.1254C14.5863 5.18694 14.5518 5.2704 14.5518 5.35742C14.5518 5.44445 14.5863 5.52791 14.6479 5.58944C14.7094 5.65098 14.7929 5.68555 14.8799 5.68555Z" fill="black"/>
<path d="M16.0996 12.0084C16.0125 12.0084 15.9291 12.043 15.8675 12.1045C15.806 12.166 15.7714 12.2495 15.7714 12.3365V13.2281H14.8799C14.7929 13.2281 14.7094 13.2627 14.6479 13.3242C14.5863 13.3857 14.5518 13.4692 14.5518 13.5562C14.5518 13.6432 14.5863 13.7267 14.6479 13.7882C14.7094 13.8498 14.7929 13.8843 14.8799 13.8843H16.0996C16.1866 13.8843 16.27 13.8498 16.3316 13.7882C16.3931 13.7267 16.4277 13.6432 16.4277 13.5562V12.3375C16.4278 12.2943 16.4194 12.2515 16.4029 12.2116C16.3865 12.1717 16.3623 12.1354 16.3319 12.1049C16.3014 12.0743 16.2652 12.0501 16.2253 12.0335C16.1855 12.017 16.1427 12.0084 16.0996 12.0084Z" fill="black"/>
<path d="M20.7433 2.92871H3.25708C3.21398 2.92869 3.1713 2.93716 3.13148 2.95364C3.09166 2.97012 3.05548 2.99429 3.02501 3.02476C2.99453 3.05524 2.97036 3.09142 2.95388 3.13124C2.9374 3.17106 2.92893 3.21374 2.92896 3.25684V15.7018C2.92896 15.7888 2.96353 15.8723 3.02506 15.9338C3.0866 15.9953 3.17006 16.0299 3.25708 16.0299H20.7433C20.8304 16.0299 20.9138 15.9953 20.9753 15.9338C21.0369 15.8723 21.0715 15.7888 21.0715 15.7018V3.25684C21.0715 3.21374 21.063 3.17106 21.0465 3.13124C21.03 3.09142 21.0059 3.05524 20.9754 3.02476C20.9449 2.99429 20.9087 2.97012 20.8689 2.95364C20.8291 2.93716 20.7864 2.92869 20.7433 2.92871ZM20.4152 15.3736H3.58521V3.58496H20.4152V15.3736Z" fill="black"/>
</svg>
