<svg width="32" height="32" viewBox="0 0 32 32" fill="none" xmlns="http://www.w3.org/2000/svg">
<path d="M29.9207 26.1039C29.1628 24.3086 28.0629 22.6779 26.6823 21.3026C25.3059 19.9233 23.6755 18.8236 21.881 18.0642C21.8649 18.0561 21.8488 18.0521 21.8328 18.0441C24.3359 16.2361 25.9631 13.291 25.9631 9.96819C25.9631 4.46373 21.5033 0.00390625 15.9988 0.00390625C10.4944 0.00390625 6.03456 4.46373 6.03456 9.96819C6.03456 13.291 7.66179 16.2361 10.1649 18.0481C10.1488 18.0561 10.1328 18.0602 10.1167 18.0682C8.3167 18.8276 6.70152 19.9164 5.31536 21.3066C3.93607 22.683 2.83636 24.3134 2.07697 26.1079C1.33094 27.8647 0.928594 29.7483 0.891702 31.6566C0.89063 31.6995 0.898151 31.7421 0.913824 31.7821C0.929496 31.822 0.953002 31.8584 0.982957 31.8891C1.01291 31.9198 1.04871 31.9442 1.08824 31.9608C1.12777 31.9775 1.17024 31.9861 1.21313 31.9861H3.62384C3.80063 31.9861 3.94126 31.8454 3.94527 31.6727C4.02563 28.5709 5.27117 25.666 7.47295 23.4642C9.75108 21.1861 12.7765 19.9325 15.9988 19.9325C19.2212 19.9325 22.2466 21.1861 24.5247 23.4642C26.7265 25.666 27.9721 28.5709 28.0524 31.6727C28.0564 31.8494 28.1971 31.9861 28.3738 31.9861H30.7846C30.8275 31.9861 30.8699 31.9775 30.9094 31.9608C30.949 31.9442 30.9848 31.9198 31.0147 31.8891C31.0447 31.8584 31.0682 31.822 31.0839 31.7821C31.0995 31.7421 31.1071 31.6995 31.106 31.6566C31.0658 29.7361 30.668 27.8677 29.9207 26.1039V26.1039ZM15.9988 16.8789C14.1546 16.8789 12.4189 16.1597 11.1131 14.8539C9.80733 13.5481 9.08813 11.8124 9.08813 9.96819C9.08813 8.124 9.80733 6.38828 11.1131 5.08248C12.4189 3.77667 14.1546 3.05748 15.9988 3.05748C17.843 3.05748 19.5788 3.77667 20.8846 5.08248C22.1904 6.38828 22.9096 8.124 22.9096 9.96819C22.9096 11.8124 22.1904 13.5481 20.8846 14.8539C19.5788 16.1597 17.843 16.8789 15.9988 16.8789Z" fill="#BDBDBD"/>
</svg>
