<svg width="24" height="24" viewBox="0 0 24 24" fill="none" xmlns="http://www.w3.org/2000/svg">
<path d="M22.8 18.0208L18.225 13.4458C18.0042 13.2251 17.7048 13.1011 17.3927 13.1011C17.0805 13.1011 16.7811 13.2251 16.5603 13.4458L14.621 15.3851C14.4233 15.5836 14.3027 15.8461 14.2811 16.1255C14.2594 16.4049 14.3381 16.6829 14.5029 16.9095L13.5547 17.8575C13.263 18.1485 12.8677 18.312 12.4556 18.312C12.0435 18.312 11.6482 18.1485 11.3565 17.8575L6.14247 12.6435C5.85142 12.3517 5.68797 11.9564 5.68797 11.5443C5.68797 11.1322 5.85142 10.737 6.14247 10.4452L7.09047 9.49704C7.31695 9.66223 7.59498 9.74111 7.87447 9.71945C8.15396 9.69779 8.41652 9.57702 8.61485 9.37891L10.5545 7.43922C10.7752 7.21839 10.8991 6.91899 10.8991 6.60682C10.8991 6.29464 10.7752 5.99524 10.5545 5.77441L5.97916 1.19997C5.86987 1.09066 5.74011 1.00394 5.5973 0.944778C5.45449 0.885615 5.30143 0.855164 5.14685 0.855164C4.99227 0.855164 4.8392 0.885615 4.69639 0.944778C4.55358 1.00394 4.42383 1.09066 4.31454 1.19997L2.37466 3.13872C2.16258 3.35162 2.03988 3.63752 2.03169 3.93791C2.0235 4.2383 2.13043 4.53046 2.3306 4.7546L1.35203 7.42628C0.8205 8.88711 0.716132 10.4691 1.05115 11.9871C1.38617 13.5051 2.14671 14.8963 3.24372 15.9977L8.00229 20.7562C9.1033 21.8538 10.4945 22.6148 12.0126 22.9497C13.5308 23.2847 15.113 23.1798 16.5737 22.6473L19.2453 21.6688C19.4693 21.8694 19.7616 21.9766 20.0621 21.9684C20.3626 21.9601 20.6486 21.8371 20.8612 21.6245L22.8 19.6856C22.9093 19.5763 22.996 19.4465 23.0552 19.3037C23.1143 19.1609 23.1448 19.0078 23.1448 18.8532C23.1448 18.6986 23.1143 18.5455 23.0552 18.4027C22.996 18.2599 22.9093 18.1301 22.8 18.0208ZM2.83872 3.60279L4.7786 1.6631C4.8763 1.5655 5.00875 1.51068 5.14685 1.51068C5.28495 1.51068 5.4174 1.5655 5.5151 1.6631L10.0901 6.2381C10.1877 6.33583 10.2425 6.46831 10.2425 6.60644C10.2425 6.74457 10.1877 6.87705 10.0901 6.97478L8.15079 8.91466C8.05298 9.01213 7.92052 9.06686 7.78244 9.06686C7.64436 9.06686 7.5119 9.01213 7.4141 8.91466L7.31247 8.81247L2.83891 4.33947C2.74141 4.24169 2.68665 4.10925 2.68661 3.97117C2.68658 3.83308 2.74128 3.70062 2.83872 3.60279ZM16.3477 22.0312C15.0045 22.52 13.5499 22.616 12.1541 22.3081C10.7583 22.0001 9.47917 21.3009 8.46635 20.2923L3.70703 15.5336C2.69855 14.5207 1.99946 13.2415 1.69161 11.8457C1.38376 10.45 1.47988 8.99536 1.96872 7.65222L2.84078 5.26872L6.61535 9.04422L5.67785 9.98172C5.26377 10.3965 5.0312 10.9587 5.0312 11.5448C5.0312 12.1309 5.26377 12.6931 5.67785 13.1079L10.8926 18.3215C11.3074 18.7356 11.8696 18.9682 12.4557 18.9682C13.0418 18.9682 13.604 18.7356 14.0188 18.3215L14.9563 17.384L18.7312 21.1592L16.3477 22.0312ZM22.3368 19.221L20.3972 21.1605C20.2994 21.2579 20.1669 21.3127 20.0288 21.3127C19.8907 21.3127 19.7583 21.2579 19.6605 21.1605L15.1875 16.6884L15.0847 16.5858C14.9873 16.488 14.9325 16.3556 14.9325 16.2175C14.9325 16.0794 14.9873 15.947 15.0847 15.8492L17.025 13.9095C17.1227 13.8119 17.2551 13.7571 17.3932 13.7571C17.5313 13.7571 17.6638 13.8119 17.7615 13.9095L22.3365 18.4845C22.4341 18.5822 22.4889 18.7147 22.4889 18.8528C22.4889 18.9909 22.4341 19.1234 22.3365 19.2212L22.3368 19.221Z" fill="black"/>
<path d="M8.54722 6.71904C8.60875 6.78058 8.69222 6.81515 8.77925 6.81515C8.86628 6.81515 8.94974 6.78058 9.01128 6.71904C9.07282 6.6575 9.10739 6.57404 9.10739 6.48701C9.10739 6.39998 9.07282 6.31652 9.01128 6.25498L7.77528 5.01917C7.71376 4.95765 7.63033 4.9231 7.54334 4.9231C7.45635 4.9231 7.37292 4.95765 7.3114 5.01917C7.24989 5.08068 7.21533 5.16411 7.21533 5.2511C7.21533 5.3381 7.24989 5.42153 7.3114 5.48304L8.54722 6.71904Z" fill="black"/>
<path d="M6.45268 4.62472C6.48315 4.65519 6.51932 4.67936 6.55913 4.69585C6.59895 4.71234 6.64162 4.72083 6.68471 4.72083C6.7278 4.72083 6.77047 4.71234 6.81028 4.69585C6.85009 4.67936 6.88627 4.65519 6.91674 4.62472C6.94721 4.59425 6.97138 4.55807 6.98787 4.51826C7.00436 4.47845 7.01285 4.43578 7.01285 4.39269C7.01285 4.34959 7.00436 4.30692 6.98787 4.26711C6.97138 4.2273 6.94721 4.19113 6.91674 4.16065L6.39905 3.64315C6.36878 3.61182 6.33257 3.58683 6.29253 3.56964C6.2525 3.55245 6.20944 3.54341 6.16587 3.54304C6.1223 3.54267 6.0791 3.55098 6.03877 3.56749C5.99845 3.584 5.96182 3.60837 5.93102 3.63918C5.90022 3.67 5.87586 3.70664 5.85937 3.74697C5.84288 3.7873 5.83459 3.8305 5.83497 3.87407C5.83536 3.91764 5.84442 3.9607 5.86163 4.00072C5.87883 4.04075 5.90384 4.07695 5.93518 4.10722L6.45268 4.62472Z" fill="black"/>
</svg>
