<svg width="20" height="24" viewBox="0 0 20 24" fill="none" xmlns="http://www.w3.org/2000/svg">
<path d="M15.6913 5.87418L16.6399 4.22418C16.6832 4.14874 16.6948 4.05917 16.6722 3.97517C16.6495 3.89117 16.5944 3.81962 16.5189 3.77624L15.1778 3.00581C15.1023 2.96247 15.0127 2.95089 14.9287 2.9736C14.8447 2.99632 14.7732 3.05147 14.7298 3.12693L13.7828 4.77524C12.9288 4.40691 12.0254 4.16596 11.1015 4.06012V3.05718H11.7671C11.8542 3.05718 11.9376 3.02261 11.9991 2.96108C12.0607 2.89954 12.0953 2.81608 12.0953 2.72906V1.18256C12.0953 1.13946 12.0868 1.09678 12.0703 1.05696C12.0538 1.01714 12.0297 0.980956 11.9992 0.950482C11.9687 0.920008 11.9325 0.895839 11.8927 0.879358C11.8529 0.862877 11.8102 0.854407 11.7671 0.854431H8.23313C8.19003 0.854407 8.14735 0.862877 8.10753 0.879358C8.06771 0.895839 8.03153 0.920008 8.00105 0.950482C7.97058 0.980956 7.94641 1.01714 7.92993 1.05696C7.91345 1.09678 7.90498 1.13946 7.905 1.18256V2.72906C7.905 2.81608 7.93957 2.89954 8.00111 2.96108C8.06264 3.02261 8.1461 3.05718 8.23313 3.05718H8.89875V4.05918C7.97482 4.16502 7.07143 4.40597 6.2175 4.77431L5.27044 3.12599C5.249 3.08861 5.2204 3.05582 5.18628 3.0295C5.15215 3.00318 5.11318 2.98384 5.07158 2.97259C5.02998 2.96134 4.98657 2.9584 4.94383 2.96394C4.90109 2.96948 4.85986 2.98339 4.8225 3.00487L3.48132 3.77531C3.40589 3.81868 3.35077 3.89023 3.32809 3.97423C3.30542 4.05823 3.31703 4.1478 3.36038 4.22324L4.30894 5.87418C2.68797 7.0721 1.48633 8.75096 0.875153 10.6716C0.263981 12.5923 0.27445 14.6569 0.905069 16.5713C1.53569 18.4857 2.7543 20.1522 4.38733 21.3337C6.02037 22.5151 7.98455 23.1511 10.0001 23.1511C12.0157 23.1511 13.9799 22.5151 15.6129 21.3337C17.246 20.1522 18.4646 18.4857 19.0952 16.5713C19.7258 14.6569 19.7363 12.5923 19.1251 10.6716C18.5139 8.75096 17.3123 7.0721 15.6913 5.87418ZM15.1354 3.73668L15.9073 4.18124L15.1483 5.50237C14.8983 5.34262 14.6413 5.19437 14.3771 5.05762L15.1354 3.73668ZM8.56125 1.51068H11.439V2.40093H8.56125V1.51068ZM9.555 3.05718H10.4453V4.00537C10.2977 3.99843 10.1501 3.99374 10.0001 3.99374C9.85013 3.99374 9.70257 3.99824 9.555 4.00518V3.05718ZM4.09294 4.18124L4.86488 3.73781L5.62313 5.05762C5.35875 5.19412 5.10169 5.34237 4.85194 5.50237L4.09294 4.18124ZM10.0001 22.4893C8.236 22.4893 6.51148 21.9662 5.04467 20.9861C3.57785 20.006 2.4346 18.6129 1.75951 16.9831C1.08441 15.3532 0.907788 13.5598 1.25197 11.8296C1.59615 10.0993 2.44567 8.51001 3.69311 7.2626C4.94055 6.01518 6.52988 5.16569 8.26012 4.82155C9.99036 4.4774 11.7838 4.65407 13.4136 5.3292C15.0435 6.00433 16.4365 7.1476 17.4166 8.61444C18.3966 10.0813 18.9197 11.8058 18.9197 13.5699C18.917 15.9347 17.9763 18.2018 16.3042 19.8739C14.632 21.5461 12.3649 22.4866 10.0001 22.4893Z" fill="black"/>
<path d="M16.4517 17.2614C17.1006 16.1321 17.4404 14.8518 17.4369 13.5493C17.4333 12.2468 17.0865 10.9683 16.4314 9.84261C16.4271 9.83139 16.4221 9.82043 16.4164 9.8098C16.4106 9.80105 16.4044 9.7926 16.3977 9.78449C15.7521 8.69842 14.8423 7.79334 13.7528 7.15349C13.7439 7.14611 13.7345 7.13928 13.7247 7.13305C13.714 7.12753 13.7031 7.12264 13.6919 7.11842C12.5627 6.46946 11.2824 6.12962 9.97996 6.13314C8.67757 6.13667 7.39911 6.48343 6.27343 7.13849C6.26204 7.14299 6.25089 7.14813 6.24006 7.15386C6.23143 7.15968 6.22311 7.16594 6.21512 7.17261C5.1289 7.81817 4.22363 8.72802 3.58356 9.81749C3.56801 9.83522 3.55616 9.85587 3.54868 9.87824C2.89976 11.0075 2.55995 12.2878 2.5635 13.5903C2.56706 14.8927 2.91385 16.1712 3.56894 17.2969C3.57332 17.3081 3.57832 17.3191 3.58394 17.3299C3.58806 17.337 3.59425 17.3422 3.59875 17.3486C4.24441 18.4373 5.15546 19.3445 6.24681 19.9856C6.25598 19.9931 6.26556 20 6.2755 20.0064C6.28375 20.0111 6.29275 20.013 6.30118 20.0171C7.43244 20.6687 8.71574 21.0099 10.0212 21.0062C11.3267 21.0024 12.608 20.6539 13.7356 19.9959C13.7436 19.992 13.7522 19.9903 13.7601 19.9856C13.768 19.9809 13.7766 19.9734 13.7851 19.9669C14.8737 19.3199 15.7806 18.4075 16.4209 17.3149C16.426 17.3075 16.4324 17.3021 16.4369 17.2942C16.4425 17.2836 16.4475 17.2727 16.4517 17.2614ZM13.7057 19.2437L13.2841 18.525C13.24 18.4499 13.168 18.3954 13.0838 18.3734C12.9996 18.3514 12.9101 18.3638 12.835 18.4078C12.7599 18.4518 12.7054 18.5238 12.6834 18.6081C12.6614 18.6923 12.6738 18.7818 12.7178 18.8569L13.1401 19.5772C12.2697 20.0347 11.3097 20.296 10.3276 20.3426V19.5054C10.3276 19.4184 10.293 19.3349 10.2315 19.2734C10.1699 19.2119 10.0865 19.1773 9.99943 19.1773C9.91241 19.1773 9.82895 19.2119 9.76742 19.2734C9.70588 19.3349 9.67131 19.4184 9.67131 19.5054V20.3426C8.70228 20.2961 7.75476 20.0407 6.89368 19.5937L7.31181 18.8713C7.35403 18.7961 7.36492 18.7072 7.34213 18.624C7.31934 18.5408 7.26469 18.4699 7.19002 18.4267C7.11535 18.3835 7.02667 18.3714 6.94317 18.3931C6.85967 18.4148 6.78807 18.4685 6.74387 18.5426L6.32631 19.2643C5.52854 18.7476 4.84735 18.0702 4.32625 17.2753L5.04568 16.8538C5.12036 16.8096 5.1745 16.7376 5.19624 16.6536C5.21799 16.5696 5.20558 16.4804 5.16172 16.4056C5.11786 16.3307 5.04613 16.2762 4.96222 16.2541C4.87832 16.232 4.78906 16.244 4.714 16.2875L3.99362 16.7098C3.53608 15.8395 3.27477 14.8795 3.22806 13.8973H4.06525C4.15227 13.8973 4.23573 13.8627 4.29727 13.8012C4.3588 13.7397 4.39337 13.6562 4.39337 13.5692C4.39337 13.4822 4.3588 13.3987 4.29727 13.3372C4.23573 13.2756 4.15227 13.241 4.06525 13.241H3.22806C3.27432 12.2718 3.52959 11.324 3.97637 10.4627L4.699 10.8806C4.77418 10.922 4.86256 10.9322 4.94522 10.9092C5.02787 10.8862 5.09822 10.8317 5.14118 10.7574C5.18414 10.6831 5.1963 10.595 5.17505 10.5118C5.1538 10.4287 5.10083 10.3572 5.0275 10.3127L4.306 9.89511C4.82264 9.09764 5.49994 8.41671 6.29462 7.8958L6.71631 8.61524C6.7605 8.68992 6.83247 8.74405 6.91647 8.7658C7.00048 8.78754 7.08967 8.77513 7.16455 8.73127C7.23942 8.68741 7.29387 8.61568 7.31599 8.53177C7.33811 8.44787 7.32609 8.35861 7.28256 8.28355L6.86031 7.56317C7.73062 7.10559 8.69064 6.84434 9.67281 6.7978V7.6348C9.67281 7.72182 9.70738 7.80528 9.76892 7.86682C9.83045 7.92835 9.91391 7.96292 10.0009 7.96292C10.088 7.96292 10.1714 7.92835 10.233 7.86682C10.2945 7.80528 10.3291 7.72182 10.3291 7.6348V6.7978C11.2983 6.844 12.2461 7.09921 13.1074 7.54592L12.6886 8.26874C12.6663 8.30606 12.6517 8.34743 12.6455 8.39044C12.6394 8.43346 12.6418 8.47728 12.6528 8.51934C12.6637 8.5614 12.6829 8.60087 12.7092 8.63546C12.7355 8.67005 12.7684 8.69907 12.806 8.72084C12.8436 8.7426 12.8852 8.75668 12.9283 8.76226C12.9714 8.76783 13.0151 8.76479 13.057 8.75331C13.099 8.74183 13.1382 8.72213 13.1724 8.69537C13.2066 8.66861 13.2352 8.63532 13.2565 8.59742L13.6741 7.87499C14.4719 8.39178 15.1531 9.06934 15.6741 9.86436L14.9547 10.2859C14.9173 10.3075 14.8846 10.3364 14.8584 10.3707C14.8322 10.4051 14.813 10.4443 14.802 10.4861C14.791 10.5279 14.7883 10.5714 14.7942 10.6142C14.8 10.657 14.8143 10.6983 14.8361 10.7356C14.858 10.7729 14.887 10.8055 14.9215 10.8315C14.9559 10.8576 14.9952 10.8765 15.037 10.8874C15.0789 10.8982 15.1224 10.9007 15.1652 10.8946C15.208 10.8886 15.2492 10.8741 15.2864 10.8521L16.0069 10.4299C16.4643 11.3002 16.7256 12.2602 16.7723 13.2424H15.9351C15.8481 13.2424 15.7646 13.2769 15.7031 13.3385C15.6416 13.4 15.607 13.4835 15.607 13.5705C15.607 13.6575 15.6416 13.741 15.7031 13.8025C15.7646 13.864 15.8481 13.8986 15.9351 13.8986H16.7723C16.7259 14.8676 16.4707 15.8151 16.024 16.6762L15.3016 16.2581C15.2262 16.2145 15.1367 16.2027 15.0526 16.2251C14.9685 16.2476 14.8967 16.3025 14.8532 16.3778C14.8096 16.4532 14.7977 16.5427 14.8201 16.6268C14.8426 16.7109 14.8975 16.7826 14.9729 16.8262L15.6944 17.2438C15.1778 18.0415 14.5005 18.7226 13.7057 19.2437Z" fill="black"/>
<path d="M14.9489 13.5699C14.9489 13.4829 14.9143 13.3995 14.8527 13.3379C14.7912 13.2764 14.7078 13.2418 14.6207 13.2418H11.4614C11.3987 12.9652 11.259 12.7119 11.0585 12.5114C10.8579 12.3108 10.6047 12.1711 10.3281 12.1084V8.94919C10.3281 8.86216 10.2935 8.7787 10.232 8.71717C10.1705 8.65563 10.087 8.62106 9.99998 8.62106C9.91295 8.62106 9.82949 8.65563 9.76796 8.71717C9.70642 8.7787 9.67185 8.86216 9.67185 8.94919V12.1084C9.41006 12.167 9.16882 12.2948 8.97331 12.4785C8.7778 12.6622 8.6352 12.8951 8.5604 13.1527C8.4856 13.4103 8.48134 13.6833 8.54807 13.9432C8.6148 14.203 8.75008 14.4402 8.93977 14.6299C9.12945 14.8196 9.3666 14.9549 9.62643 15.0217C9.88627 15.0884 10.1593 15.0842 10.4169 15.0094C10.6745 14.9346 10.9074 14.7921 11.0911 14.5966C11.2748 14.4011 11.4027 14.1598 11.4614 13.8981H14.6207C14.7077 13.898 14.7912 13.8634 14.8527 13.8019C14.9142 13.7404 14.9488 13.6569 14.9489 13.5699ZM9.99998 14.4124C9.8333 14.4124 9.67037 14.363 9.53177 14.2704C9.39317 14.1779 9.28514 14.0463 9.22134 13.8923C9.15754 13.7383 9.14084 13.5689 9.17334 13.4054C9.20585 13.2419 9.28611 13.0918 9.40396 12.9739C9.52182 12.8561 9.67198 12.7758 9.83545 12.7433C9.99892 12.7108 10.1684 12.7275 10.3223 12.7913C10.4763 12.8551 10.6079 12.9631 10.7005 13.1017C10.7931 13.2403 10.8425 13.4033 10.8424 13.5699C10.8421 13.7933 10.7532 14.0073 10.5953 14.1652C10.4374 14.3232 10.2233 14.412 9.99998 14.4124Z" fill="black"/>
</svg>
