<svg width="10" height="8" viewBox="0 0 10 8" fill="none" xmlns="http://www.w3.org/2000/svg">
<path d="M5.41109 0.215499C5.36522 0.148879 5.30384 0.094407 5.23225 0.056776C5.16065 0.019145 5.08098 -0.000516938 5.00009 -0.000516931C4.91921 -0.000516924 4.83954 0.019145 4.76794 0.056776C4.69634 0.0944071 4.63496 0.148879 4.58909 0.215499L0.0890922 6.7155C0.0370044 6.79047 0.00646014 6.87828 0.000775291 6.9694C-0.00490955 7.06051 0.0144844 7.15144 0.0568495 7.2323C0.0992145 7.31317 0.16293 7.38088 0.241075 7.42807C0.319219 7.47527 0.408802 7.50014 0.500093 7.5L9.50009 7.5C9.59117 7.49962 9.68042 7.47443 9.75825 7.42712C9.83608 7.37981 9.89954 7.31218 9.94181 7.2315C9.98408 7.15083 10.0035 7.06015 9.99814 6.96923C9.99273 6.87832 9.96263 6.79059 9.91109 6.7155L5.41109 0.215499Z" fill="#1A8B32"/>
</svg>
