<svg width="24" height="24" viewBox="0 0 24 24" fill="none" xmlns="http://www.w3.org/2000/svg">
<path d="M19.6414 16.0085H17.2363V16.8102H19.6414V16.0085Z" fill="black"/>
<path d="M16.4349 16.0085H14.0298V16.8102H16.4349V16.0085Z" fill="black"/>
<path d="M13.2278 16.0085H10.8228V16.8102H13.2278V16.0085Z" fill="black"/>
<path d="M23.6448 8.31342L15.7133 0.380631C15.488 0.153249 15.1811 0.025479 14.8611 0.0258798H14.8574C14.5395 0.0260302 14.2349 0.153851 14.0121 0.380631L5.59825 8.79324H1.20255C0.53839 8.79324 0 9.33163 0 9.99578V21.2195C0 21.8837 0.53839 22.4221 1.20255 22.4221H7.14151L8.33765 23.6194C8.56287 23.8468 8.86977 23.9746 9.18985 23.9742H9.19306C9.51113 23.9741 9.81588 23.8463 10.0388 23.6194L11.2374 22.4221H20.4433C21.1074 22.4221 21.6458 21.8837 21.6458 21.2195V12.0137L23.6428 10.0166C23.8708 9.79351 23.9994 9.48816 24 9.16924C24.0012 8.84785 23.8732 8.5395 23.6448 8.31342ZM18.5457 4.34783L14.1002 8.79324H10.6962L16.8436 2.64583L18.5457 4.34783ZM14.5797 0.945827C14.7321 0.789647 14.9824 0.78664 15.1386 0.939163C15.1408 0.941368 15.1431 0.943572 15.1453 0.945827L16.2768 2.07903L9.56224 8.79324H6.73185L14.5797 0.945827ZM9.47125 23.0542C9.39794 23.1308 9.29663 23.1742 9.19065 23.1745C9.08322 23.1742 8.98041 23.1309 8.90525 23.0542L8.27552 22.4221H10.1038L9.47125 23.0542ZM20.8441 21.2195C20.8441 21.4409 20.6646 21.6204 20.4433 21.6204H1.20255C0.981177 21.6204 0.801697 21.4409 0.801697 21.2195V15.6077H20.8441V21.2195ZM20.8441 14.806H0.801697V12.4009H20.8441V14.806ZM20.8441 11.5992H0.801697V9.99578C0.801697 9.77442 0.981177 9.59494 1.20255 9.59494H20.4433C20.6646 9.59494 20.8441 9.77442 20.8441 9.99578V11.5992ZM23.078 9.44783L21.6458 10.8801V9.99578C21.6458 9.33163 21.1074 8.79324 20.4433 8.79324H15.2322L19.1108 4.91463L23.0764 8.88022C23.1535 8.95568 23.1968 9.059 23.1967 9.16683C23.1966 9.27265 23.1538 9.37397 23.078 9.44783Z" fill="black"/>
<path d="M3.84463 20.8295C3.90315 20.7789 3.95797 20.7241 4.00857 20.6656C4.53865 21.283 5.44942 21.4003 6.11864 20.9373C6.55055 20.6354 6.8098 20.1432 6.81451 19.6161C6.81451 18.7306 6.09664 18.0128 5.21112 18.0128C5.13155 18.0116 5.05208 18.0184 4.97382 18.0328L4.9634 18.0356C4.95939 18.0356 4.95538 18.0356 4.95177 18.0356C4.58454 18.0966 4.25059 18.2851 4.00857 18.5679C3.42935 17.8981 2.41676 17.8247 1.74699 18.404C1.07717 18.9832 1.00377 19.9958 1.58304 20.6656C2.16227 21.3354 3.17481 21.4088 3.84463 20.8295ZM5.1097 18.8229C5.14313 18.8165 5.1771 18.8137 5.21112 18.8144C5.65391 18.8144 6.01282 19.1734 6.01282 19.6161C6.01242 19.7858 5.95715 19.9507 5.85528 20.0863C5.84085 20.106 5.82963 20.1264 5.81319 20.1469C5.81039 20.1501 5.80638 20.1521 5.80317 20.1553C5.65175 20.3225 5.4367 20.4179 5.21112 20.4178C4.76843 20.4103 4.41564 20.0453 4.4232 19.6026C4.42992 19.2095 4.72063 18.8793 5.1097 18.8229ZM2.80603 18.8144C3.24882 18.8144 3.60773 19.1734 3.60773 19.6161C3.60773 20.0589 3.24882 20.4178 2.80603 20.4178C2.36324 20.4178 2.00433 20.0589 2.00433 19.6161C2.00433 19.1734 2.36324 18.8144 2.80603 18.8144Z" fill="black"/>
</svg>
